{
  "source": "C:\\Users\\Peter\\Desktop\\stuff\\MIUN\\quantitative_research\\video_compression\\videos\\BVI-HD\\BVI-HD_CDVL_videos\\ORIG\\Diver_1920x1080_30fps.mp4",
  "output": "C:\\Users\\Peter\\Desktop\\stuff\\MIUN\\quantitative_research\\video_compression\\compressed_videos\\BVI-HD\\hevc\\2\\Diver_1920x1080_30fps_hevc.mp4",
  "codec": "hevc",
  "ok": "Input #0, mov,mp4,m4a,3gp,3g2,mj2, from 'C:\\Users\\Peter\\Desktop\\stuff\\MIUN\\quantitative_research\\video_compression\\videos\\BVI-HD\\BVI-HD_CDVL_videos\\ORIG\\Diver_1920x1080_30fps.mp4':\n  Metadata:\n    major_brand     : isom\n    minor_version   : 512\n    compatible_brands: isomiso2avc1mp41\n    encoder         : Lavf54.28.101\n  Duration: 00:00:05.00, start: 0.000000, bitrate: 196798 kb/s\n  Stream #0:0[0x1](und): Video: h264 (High 4:4:4 Predictive) (avc1 / 0x31637661), yuv420p(progressive), 1920x1080, 196794 kb/s, 30 fps, 30 tbr, 30 tbn (default)\n    Metadata:\n      handler_name    : VideoHandler\n      vendor_id       : [0][0][0][0]\n[out#0/mp4 @ 0000020942a6ad00] Codec AVOption b:a (set bitrate (in bits/s)) has not been used for any stream. The most likely reason is either wrong type (e.g. a video option with no video streams) or that it is a private option of some decoder which was not actually used for any stream.\nStream mapping:\n  Stream #0:0 -> #0:0 (h264 (native) -> hevc (libx265))\nPress [q] to stop, [?] for help\n[libx265 @ 0000020942a6fd80] Unknown option: \"aq-mode.\nx265 [info]: HEVC encoder version 4.1+190-8f11c33ac\nx265 [info]: build info [Windows][GCC 15.1.0][64 bit] 10bit\nx265 [info]: using cpu capabilities: MMX2 SSE2Fast LZCNT SSSE3 SSE4.2 AVX FMA3 BMI2 AVX2\nx265 [info]: Main 10 profile, Level-4 (Main tier)\nx265 [info]: Thread pool created using 12 threads\nx265 [info]: Slices                              : 1\nx265 [info]: frame threads / pool features       : 3 / wpp(17 rows)\nx265 [info]: Coding QT: max CU size, min CU size : 64 / 8\nx265 [info]: Residual QT: max TU size, max depth : 32 / 1 inter / 1 intra\nx265 [info]: ME / range / subpel / merge         : star / 57 / 3 / 3\nx265 [info]: Keyframe min / max / scenecut / bias  : 25 / 250 / 40 / 5.00 \nx265 [info]: Lookahead / bframes / badapt        : 25 / 4 / 2\nx265 [info]: b-pyramid / weightp / weightb       : 1 / 1 / 0\nx265 [info]: References / ref-limit  cu / depth  : 4 / on / on\nx265 [info]: AQ: mode / str / qg-size / cu-tree  : 2 / 1.0 / 32 / 1\nx265 [info]: Rate Control / qCompress            : ABR-2000 kbps / 0.60\nx265 [info]: VBV/HRD buffer / max-rate / init    : 2000 / 2000 / 0.750\nx265 [info]: tools: rect limit-modes rd=4 psy-rd=2.00 rdoq=2 psy-rdoq=1.00\nx265 [info]: tools: rskip mode=1 signhide tmvp strong-intra-smoothing lslices=4\nx265 [info]: tools: deblock sao dhdr10-info\nOutput #0, mp4, to 'C:\\Users\\Peter\\Desktop\\stuff\\MIUN\\quantitative_research\\video_compression\\compressed_videos\\BVI-HD\\hevc\\2\\Diver_1920x1080_30fps_hevc.mp4':\n  Metadata:\n    major_brand     : isom\n    minor_version   : 512\n    compatible_brands: isomiso2avc1mp41\n    encoder         : Lavf62.3.100\n  Stream #0:0(und): Video: hevc (hev1 / 0x31766568), yuv420p10le(tv, progressive), 1920x1080, q=2-31, 2000 kb/s, 30 fps, 15360 tbn (default)\n    Metadata:\n      encoder         : Lavc62.11.100 libx265\n      handler_name    : VideoHandler\n      vendor_id       : [0][0][0][0]\n    Side data:\n      cpb: bitrate max/min/avg: 2000000/0/2000000 buffer size: 2000000 vbv_delay: N/A\nframe=    0 fps=0.0 q=0.0 size=       0KiB time=N/A bitrate=N/A speed=N/A elapsed=0:00:00.51    \nframe=    0 fps=0.0 q=0.0 size=       0KiB time=N/A bitrate=N/A speed=N/A elapsed=0:00:01.16    \nframe=    0 fps=0.0 q=0.0 size=       0KiB time=N/A bitrate=N/A speed=N/A elapsed=0:00:01.69    \nframe=    0 fps=0.0 q=0.0 size=       0KiB time=N/A bitrate=N/A speed=N/A elapsed=0:00:02.21    \nframe=    0 fps=0.0 q=0.0 size=       0KiB time=N/A bitrate=N/A speed=N/A elapsed=0:00:02.73    \nframe=    0 fps=0.0 q=0.0 size=       0KiB time=N/A bitrate=N/A speed=N/A elapsed=0:00:03.25    \nframe=    0 fps=0.0 q=0.0 size=       0KiB time=N/A bitrate=N/A speed=N/A elapsed=0:00:03.79    \nframe=    0 fps=0.0 q=0.0 size=       0KiB time=N/A bitrate=N/A speed=N/A elapsed=0:00:04.33    \nframe=    0 fps=0.0 q=0.0 size=       0KiB time=N/A bitrate=N/A speed=N/A elapsed=0:00:04.87    \nframe=    0 fps=0.0 q=0.0 size=       0KiB time=N/A bitrate=N/A speed=N/A elapsed=0:00:05.37    \nframe=    0 fps=0.0 q=0.0 size=       0KiB time=N/A bitrate=N/A speed=N/A elapsed=0:00:05.89    \nframe=    1 fps=0.2 q=31.0 size=       0KiB time=-00:00:00.03 bitrate=N/A speed=N/A elapsed=0:00:06.41    \nframe=    2 fps=0.3 q=33.9 size=       0KiB time=00:00:00.00 bitrate=N/A speed=   0x elapsed=0:00:06.95    \nframe=    2 fps=0.3 q=33.9 size=       0KiB time=00:00:00.00 bitrate=N/A speed=   0x elapsed=0:00:07.50    \nframe=    4 fps=0.5 q=37.3 size=       0KiB time=00:00:00.03 bitrate=  10.6kbits/s speed=0.00415x elapsed=0:00:08.02    \nframe=    4 fps=0.5 q=37.3 size=       0KiB time=00:00:00.06 bitrate=   5.3kbits/s speed=0.0078x elapsed=0:00:08.54    \nframe=    4 fps=0.4 q=37.3 size=       0KiB time=00:00:00.06 bitrate=   5.3kbits/s speed=0.00735x elapsed=0:00:09.06    \nframe=    4 fps=0.4 q=37.3 size=       0KiB time=00:00:00.06 bitrate=   5.3kbits/s speed=0.00696x elapsed=0:00:09.57    \nframe=    4 fps=0.4 q=37.3 size=       0KiB time=00:00:00.06 bitrate=   5.3kbits/s speed=0.0066x elapsed=0:00:10.09    \nframe=    5 fps=0.5 q=34.5 size=       0KiB time=00:00:00.10 bitrate=   3.5kbits/s speed=0.00942x elapsed=0:00:10.61    \nframe=    5 fps=0.4 q=34.5 size=       0KiB time=00:00:00.10 bitrate=   3.5kbits/s speed=0.00897x elapsed=0:00:11.15    \nframe=    5 fps=0.4 q=34.5 size=       0KiB time=00:00:00.10 bitrate=   3.5kbits/s speed=0.00856x elapsed=0:00:11.68    \nframe=    6 fps=0.5 q=33.7 size=       0KiB time=00:00:00.13 bitrate=   2.6kbits/s speed=0.0109x elapsed=0:00:12.20    \nframe=    6 fps=0.5 q=33.7 size=       0KiB time=00:00:00.13 bitrate=   2.6kbits/s speed=0.0105x elapsed=0:00:12.72    \nframe=    7 fps=0.5 q=26.3 size=       0KiB time=00:00:00.16 bitrate=   2.1kbits/s speed=0.0126x elapsed=0:00:13.24    \nframe=    7 fps=0.5 q=26.3 size=       0KiB time=00:00:00.16 bitrate=   2.1kbits/s speed=0.0121x elapsed=0:00:13.76    \nframe=    7 fps=0.5 q=26.3 size=       0KiB time=00:00:00.16 bitrate=   2.1kbits/s speed=0.0117x elapsed=0:00:14.28    \nframe=    8 fps=0.5 q=27.9 size=       0KiB time=00:00:00.20 bitrate=   1.8kbits/s speed=0.0135x elapsed=0:00:14.80    \nframe=    9 fps=0.6 q=28.1 size=       0KiB time=00:00:00.23 bitrate=   1.5kbits/s speed=0.0152x elapsed=0:00:15.32    \nframe=    9 fps=0.6 q=28.1 size=       0KiB time=00:00:00.23 bitrate=   1.5kbits/s speed=0.0147x elapsed=0:00:15.84    \nframe=    9 fps=0.5 q=28.1 size=       0KiB time=00:00:00.23 bitrate=   1.5kbits/s speed=0.0143x elapsed=0:00:16.36    \nframe=   10 fps=0.6 q=27.5 size=       0KiB time=00:00:00.26 bitrate=   1.3kbits/s speed=0.0158x elapsed=0:00:16.89    \nframe=   10 fps=0.6 q=27.5 size=       0KiB time=00:00:00.26 bitrate=   1.3kbits/s speed=0.0153x elapsed=0:00:17.42    \nframe=   11 fps=0.6 q=27.0 size=       0KiB time=00:00:00.30 bitrate=   1.2kbits/s speed=0.0167x elapsed=0:00:17.93    \nframe=   11 fps=0.6 q=27.0 size=       0KiB time=00:00:00.30 bitrate=   1.2kbits/s speed=0.0162x elapsed=0:00:18.47    \nframe=   11 fps=0.6 q=27.0 size=       0KiB time=00:00:00.30 bitrate=   1.2kbits/s speed=0.0158x elapsed=0:00:19.00    \nframe=   11 fps=0.6 q=27.0 size=       0KiB time=00:00:00.30 bitrate=   1.2kbits/s speed=0.0154x elapsed=0:00:19.53    \nframe=   12 fps=0.6 q=24.7 size=       0KiB time=00:00:00.33 bitrate=   1.1kbits/s speed=0.0166x elapsed=0:00:20.05    \nframe=   12 fps=0.6 q=24.7 size=       0KiB time=00:00:00.33 bitrate=   1.1kbits/s speed=0.0162x elapsed=0:00:20.56    \nframe=   12 fps=0.6 q=24.7 size=       0KiB time=00:00:00.33 bitrate=   1.1kbits/s speed=0.0158x elapsed=0:00:21.08    \nframe=   12 fps=0.6 q=24.7 size=       0KiB time=00:00:00.33 bitrate=   1.1kbits/s speed=0.0154x elapsed=0:00:21.60    \nframe=   13 fps=0.6 q=26.9 size=       0KiB time=00:00:00.36 bitrate=   1.0kbits/s speed=0.0166x elapsed=0:00:22.12    \nframe=   13 fps=0.6 q=26.9 size=       0KiB time=00:00:00.36 bitrate=   1.0kbits/s speed=0.0162x elapsed=0:00:22.64    \nframe=   14 fps=0.6 q=27.1 size=       0KiB time=00:00:00.36 bitrate=   1.0kbits/s speed=0.0158x elapsed=0:00:23.16    \nframe=   14 fps=0.6 q=27.1 size=       0KiB time=00:00:00.40 bitrate=   0.9kbits/s speed=0.0169x elapsed=0:00:23.71    \nframe=   14 fps=0.6 q=27.1 size=       0KiB time=00:00:00.40 bitrate=   0.9kbits/s speed=0.0165x elapsed=0:00:24.21    \nframe=   14 fps=0.6 q=27.1 size=       0KiB time=00:00:00.40 bitrate=   0.9kbits/s speed=0.0162x elapsed=0:00:24.74    \nframe=   14 fps=0.6 q=27.1 size=       0KiB time=00:00:00.40 bitrate=   0.9kbits/s speed=0.0158x elapsed=0:00:25.28    \nframe=   14 fps=0.5 q=27.1 size=       0KiB time=00:00:00.40 bitrate=   0.9kbits/s speed=0.0155x elapsed=0:00:25.82    \nframe=   14 fps=0.5 q=27.1 size=       0KiB time=00:00:00.40 bitrate=   0.9kbits/s speed=0.0152x elapsed=0:00:26.36    \nframe=   15 fps=0.6 q=27.1 size=       0KiB time=00:00:00.43 bitrate=   0.8kbits/s speed=0.0161x elapsed=0:00:26.88    \nframe=   15 fps=0.5 q=27.1 size=       0KiB time=00:00:00.43 bitrate=   0.8kbits/s speed=0.0158x elapsed=0:00:27.40    \nframe=   15 fps=0.5 q=27.1 size=       0KiB time=00:00:00.43 bitrate=   0.8kbits/s speed=0.0155x elapsed=0:00:27.93    \nframe=   16 fps=0.6 q=27.2 size=       0KiB time=00:00:00.46 bitrate=   0.8kbits/s speed=0.0164x elapsed=0:00:28.45    \nframe=   16 fps=0.6 q=27.2 size=       0KiB time=00:00:00.46 bitrate=   0.8kbits/s speed=0.0161x elapsed=0:00:28.95    \nframe=   16 fps=0.5 q=27.2 size=       0KiB time=00:00:00.46 bitrate=   0.8kbits/s speed=0.0158x elapsed=0:00:29.47    \nframe=   16 fps=0.5 q=27.2 size=       0KiB time=00:00:00.46 bitrate=   0.8kbits/s speed=0.0156x elapsed=0:00:29.99    \nframe=   17 fps=0.6 q=24.3 size=       0KiB time=00:00:00.50 bitrate=   0.7kbits/s speed=0.0164x elapsed=0:00:30.51    \nframe=   17 fps=0.5 q=24.3 size=       0KiB time=00:00:00.50 bitrate=   0.7kbits/s speed=0.0161x elapsed=0:00:31.03    \nframe=   18 fps=0.6 q=26.3 size=       0KiB time=00:00:00.53 bitrate=   0.7kbits/s speed=0.0169x elapsed=0:00:31.55    \nframe=   18 fps=0.6 q=26.3 size=       0KiB time=00:00:00.53 bitrate=   0.7kbits/s speed=0.0166x elapsed=0:00:32.07    \nframe=   18 fps=0.6 q=26.3 size=       0KiB time=00:00:00.53 bitrate=   0.7kbits/s speed=0.0164x elapsed=0:00:32.60    \nframe=   18 fps=0.5 q=26.3 size=       0KiB time=00:00:00.53 bitrate=   0.7kbits/s speed=0.0161x elapsed=0:00:33.13    \nframe=   19 fps=0.6 q=27.3 size=       0KiB time=00:00:00.56 bitrate=   0.6kbits/s speed=0.0168x elapsed=0:00:33.64    \nframe=   19 fps=0.6 q=27.3 size=       0KiB time=00:00:00.56 bitrate=   0.6kbits/s speed=0.0166x elapsed=0:00:34.18    \nframe=   19 fps=0.5 q=27.3 size=       0KiB time=00:00:00.56 bitrate=   0.6kbits/s speed=0.0163x elapsed=0:00:34.71    \nframe=   19 fps=0.5 q=27.3 size=       0KiB time=00:00:00.56 bitrate=   0.6kbits/s speed=0.0161x elapsed=0:00:35.25    \nframe=   20 fps=0.6 q=27.1 size=       0KiB time=00:00:00.60 bitrate=   0.6kbits/s speed=0.0168x elapsed=0:00:35.77    \nframe=   20 fps=0.6 q=27.1 size=       0KiB time=00:00:00.60 bitrate=   0.6kbits/s speed=0.0165x elapsed=0:00:36.28    \nframe=   21 fps=0.6 q=26.9 size=       0KiB time=00:00:00.63 bitrate=   0.6kbits/s speed=0.0172x elapsed=0:00:36.82    \nframe=   21 fps=0.6 q=26.9 size=       0KiB time=00:00:00.63 bitrate=   0.6kbits/s speed=0.0169x elapsed=0:00:37.37    \nframe=   22 fps=0.6 q=24.2 size=       0KiB time=00:00:00.66 bitrate=   0.5kbits/s speed=0.0176x elapsed=0:00:37.89    \nframe=   22 fps=0.6 q=24.2 size=       0KiB time=00:00:00.66 bitrate=   0.5kbits/s speed=0.0174x elapsed=0:00:38.42    \nframe=   22 fps=0.6 q=24.2 size=       0KiB time=00:00:00.66 bitrate=   0.5kbits/s speed=0.0171x elapsed=0:00:38.93    \nframe=   23 fps=0.6 q=25.6 size=       0KiB time=00:00:00.70 bitrate=   0.5kbits/s speed=0.0177x elapsed=0:00:39.45    \nframe=   23 fps=0.6 q=25.6 size=       0KiB time=00:00:00.70 bitrate=   0.5kbits/s speed=0.0175x elapsed=0:00:39.98    \nframe=   24 fps=0.6 q=27.0 size=       0KiB time=00:00:00.73 bitrate=   0.5kbits/s speed=0.0181x elapsed=0:00:40.51    \nframe=   24 fps=0.6 q=27.0 size=       0KiB time=00:00:00.73 bitrate=   0.5kbits/s speed=0.0179x elapsed=0:00:41.03    \nframe=   24 fps=0.6 q=27.0 size=       0KiB time=00:00:00.73 bitrate=   0.5kbits/s speed=0.0176x elapsed=0:00:41.57    \nframe=   24 fps=0.6 q=27.0 size=       0KiB time=00:00:00.73 bitrate=   0.5kbits/s speed=0.0174x elapsed=0:00:42.08    \nframe=   24 fps=0.6 q=27.0 size=       0KiB time=00:00:00.73 bitrate=   0.5kbits/s speed=0.0172x elapsed=0:00:42.60    \nframe=   25 fps=0.6 q=26.9 size=       0KiB time=00:00:00.76 bitrate=   0.5kbits/s speed=0.0178x elapsed=0:00:43.11    \nframe=   25 fps=0.6 q=26.9 size=       0KiB time=00:00:00.76 bitrate=   0.5kbits/s speed=0.0176x elapsed=0:00:43.63    \nframe=   25 fps=0.6 q=26.9 size=       0KiB time=00:00:00.76 bitrate=   0.5kbits/s speed=0.0174x elapsed=0:00:44.14    \nframe=   25 fps=0.6 q=26.9 size=       0KiB time=00:00:00.76 bitrate=   0.5kbits/s speed=0.0172x elapsed=0:00:44.67    \nframe=   25 fps=0.6 q=26.9 size=       0KiB time=00:00:00.76 bitrate=   0.5kbits/s speed=0.017x elapsed=0:00:45.20    \nframe=   26 fps=0.6 q=27.1 size=       0KiB time=00:00:00.80 bitrate=   0.4kbits/s speed=0.0175x elapsed=0:00:45.72    \nframe=   26 fps=0.6 q=27.1 size=       0KiB time=00:00:00.80 bitrate=   0.4kbits/s speed=0.0173x elapsed=0:00:46.24    \nframe=   26 fps=0.6 q=27.1 size=       0KiB time=00:00:00.80 bitrate=   0.4kbits/s speed=0.0171x elapsed=0:00:46.75    \nframe=   26 fps=0.5 q=27.1 size=       0KiB time=00:00:00.80 bitrate=   0.4kbits/s speed=0.0169x elapsed=0:00:47.28    \nframe=   26 fps=0.5 q=27.1 size=       0KiB time=00:00:00.80 bitrate=   0.4kbits/s speed=0.0167x elapsed=0:00:47.80    \nframe=   26 fps=0.5 q=27.1 size=       0KiB time=00:00:00.80 bitrate=   0.4kbits/s speed=0.0165x elapsed=0:00:48.36    \nframe=   26 fps=0.5 q=27.1 size=       0KiB time=00:00:00.80 bitrate=   0.4kbits/s speed=0.0163x elapsed=0:00:48.94    \nframe=   26 fps=0.5 q=27.1 size=       0KiB time=00:00:00.80 bitrate=   0.4kbits/s speed=0.0162x elapsed=0:00:49.51    \nframe=   26 fps=0.5 q=27.1 size=       0KiB time=00:00:00.80 bitrate=   0.4kbits/s speed=0.016x elapsed=0:00:50.14    \nframe=   26 fps=0.5 q=27.1 size=       0KiB time=00:00:00.80 bitrate=   0.4kbits/s speed=0.0158x elapsed=0:00:50.75    \nframe=   26 fps=0.5 q=27.1 size=       0KiB time=00:00:00.80 bitrate=   0.4kbits/s speed=0.0156x elapsed=0:00:51.31    \nframe=   26 fps=0.5 q=27.1 size=       0KiB time=00:00:00.80 bitrate=   0.4kbits/s speed=0.0154x elapsed=0:00:51.89    \nframe=   26 fps=0.5 q=27.1 size=       0KiB time=00:00:00.80 bitrate=   0.4kbits/s speed=0.0152x elapsed=0:00:52.46    \nframe=   26 fps=0.5 q=27.1 size=       0KiB time=00:00:00.80 bitrate=   0.4kbits/s speed=0.0151x elapsed=0:00:53.01    \nframe=   27 fps=0.5 q=24.3 size=       0KiB time=00:00:00.83 bitrate=   0.4kbits/s speed=0.0156x elapsed=0:00:53.56    \nframe=   27 fps=0.5 q=24.3 size=       0KiB time=00:00:00.83 bitrate=   0.4kbits/s speed=0.0154x elapsed=0:00:54.10    \nframe=   27 fps=0.5 q=24.3 size=       0KiB time=00:00:00.83 bitrate=   0.4kbits/s speed=0.0152x elapsed=0:00:54.64    \nframe=   27 fps=0.5 q=24.3 size=       0KiB time=00:00:00.83 bitrate=   0.4kbits/s speed=0.0151x elapsed=0:00:55.20    \nframe=   28 fps=0.5 q=26.2 size=       0KiB time=00:00:00.86 bitrate=   0.4kbits/s speed=0.0155x elapsed=0:00:55.78    \nframe=   28 fps=0.5 q=26.2 size=       0KiB time=00:00:00.86 bitrate=   0.4kbits/s speed=0.0154x elapsed=0:00:56.31    \nframe=   28 fps=0.5 q=26.2 size=       0KiB time=00:00:00.86 bitrate=   0.4kbits/s speed=0.0153x elapsed=0:00:56.81    \nframe=   29 fps=0.5 q=27.7 size=       0KiB time=00:00:00.90 bitrate=   0.4kbits/s speed=0.0157x elapsed=0:00:57.33    \nframe=   29 fps=0.5 q=27.7 size=       0KiB time=00:00:00.90 bitrate=   0.4kbits/s speed=0.0156x elapsed=0:00:57.84    \nframe=   29 fps=0.5 q=27.7 size=       0KiB time=00:00:00.90 bitrate=   0.4kbits/s speed=0.0154x elapsed=0:00:58.36    \nframe=   29 fps=0.5 q=27.7 size=       0KiB time=00:00:00.90 bitrate=   0.4kbits/s speed=0.0153x elapsed=0:00:58.91    \nframe=   29 fps=0.5 q=27.7 size=       0KiB time=00:00:00.90 bitrate=   0.4kbits/s speed=0.0151x elapsed=0:00:59.44    \nframe=   30 fps=0.5 q=27.5 size=       0KiB time=00:00:00.93 bitrate=   0.4kbits/s speed=0.0156x elapsed=0:00:59.96    \nframe=   30 fps=0.5 q=27.5 size=       0KiB time=00:00:00.93 bitrate=   0.4kbits/s speed=0.0154x elapsed=0:01:00.47    \nframe=   31 fps=0.5 q=27.5 size=       0KiB time=00:00:00.96 bitrate=   0.4kbits/s speed=0.0158x elapsed=0:01:00.99    \nframe=   31 fps=0.5 q=27.5 size=       0KiB time=00:00:00.96 bitrate=   0.4kbits/s speed=0.0157x elapsed=0:01:01.51    \nframe=   31 fps=0.5 q=27.5 size=       0KiB time=00:00:00.96 bitrate=   0.4kbits/s speed=0.0156x elapsed=0:01:02.03    \nframe=   32 fps=0.5 q=24.5 size=       0KiB time=00:00:01.00 bitrate=   0.4kbits/s speed=0.016x elapsed=0:01:02.56    \nframe=   32 fps=0.5 q=24.5 size=       0KiB time=00:00:01.00 bitrate=   0.4kbits/s speed=0.0158x elapsed=0:01:03.09    \nframe=   32 fps=0.5 q=24.5 size=       0KiB time=00:00:01.00 bitrate=   0.4kbits/s speed=0.0157x elapsed=0:01:03.63    \nframe=   33 fps=0.5 q=25.5 size=       0KiB time=00:00:01.03 bitrate=   0.3kbits/s speed=0.0161x elapsed=0:01:04.15    \nframe=   33 fps=0.5 q=25.5 size=       0KiB time=00:00:01.03 bitrate=   0.3kbits/s speed=0.016x elapsed=0:01:04.65    \nframe=   33 fps=0.5 q=25.5 size=       0KiB time=00:00:01.03 bitrate=   0.3kbits/s speed=0.0159x elapsed=0:01:05.17    \nframe=   33 fps=0.5 q=25.5 size=       0KiB time=00:00:01.03 bitrate=   0.3kbits/s speed=0.0157x elapsed=0:01:05.70    \nframe=   34 fps=0.5 q=27.7 size=       0KiB time=00:00:01.06 bitrate=   0.3kbits/s speed=0.0161x elapsed=0:01:06.24    \nframe=   34 fps=0.5 q=27.7 size=       0KiB time=00:00:01.06 bitrate=   0.3kbits/s speed=0.016x elapsed=0:01:06.77    \nframe=   34 fps=0.5 q=27.7 size=       0KiB time=00:00:01.06 bitrate=   0.3kbits/s speed=0.0159x elapsed=0:01:07.28    \nframe=   35 fps=0.5 q=27.5 size=       0KiB time=00:00:01.10 bitrate=   0.3kbits/s speed=0.0162x elapsed=0:01:07.80    \nframe=   35 fps=0.5 q=27.5 size=       0KiB time=00:00:01.10 bitrate=   0.3kbits/s speed=0.0161x elapsed=0:01:08.31    \nframe=   36 fps=0.5 q=24.6 size=       0KiB time=00:00:01.13 bitrate=   0.3kbits/s speed=0.0165x elapsed=0:01:08.83    \nframe=   36 fps=0.5 q=24.6 size=       0KiB time=00:00:01.13 bitrate=   0.3kbits/s speed=0.0163x elapsed=0:01:09.37    \nframe=   36 fps=0.5 q=24.6 size=       0KiB time=00:00:01.13 bitrate=   0.3kbits/s speed=0.0162x elapsed=0:01:09.89    \nframe=   37 fps=0.5 q=25.2 size=     256KiB time=00:00:01.16 bitrate=1797.9kbits/s speed=0.0166x elapsed=0:01:10.42    \nframe=   37 fps=0.5 q=25.2 size=     256KiB time=00:00:01.16 bitrate=1797.9kbits/s speed=0.0164x elapsed=0:01:11.00    \nframe=   37 fps=0.5 q=25.2 size=     256KiB time=00:00:01.16 bitrate=1797.9kbits/s speed=0.0163x elapsed=0:01:11.52    \nframe=   37 fps=0.5 q=25.2 size=     256KiB time=00:00:01.16 bitrate=1797.9kbits/s speed=0.0162x elapsed=0:01:12.03    \nframe=   38 fps=0.5 q=27.6 size=     256KiB time=00:00:01.20 bitrate=1747.9kbits/s speed=0.0165x elapsed=0:01:12.56    \nframe=   38 fps=0.5 q=27.6 size=     256KiB time=00:00:01.20 bitrate=1747.9kbits/s speed=0.0164x elapsed=0:01:13.09    \nframe=   38 fps=0.5 q=27.6 size=     256KiB time=00:00:01.20 bitrate=1747.9kbits/s speed=0.0163x elapsed=0:01:13.66    \nframe=   38 fps=0.5 q=27.6 size=     256KiB time=00:00:01.20 bitrate=1747.9kbits/s speed=0.0162x elapsed=0:01:14.19    \nframe=   38 fps=0.5 q=27.6 size=     256KiB time=00:00:01.20 bitrate=1747.9kbits/s speed=0.0161x elapsed=0:01:14.71    \nframe=   38 fps=0.5 q=27.6 size=     256KiB time=00:00:01.20 bitrate=1747.9kbits/s speed=0.0159x elapsed=0:01:15.23    \nframe=   38 fps=0.5 q=27.6 size=     256KiB time=00:00:01.20 bitrate=1747.9kbits/s speed=0.0158x elapsed=0:01:15.75    \nframe=   39 fps=0.5 q=27.6 size=     256KiB time=00:00:01.23 bitrate=1700.7kbits/s speed=0.0162x elapsed=0:01:16.27    \nframe=   39 fps=0.5 q=27.6 size=     256KiB time=00:00:01.23 bitrate=1700.7kbits/s speed=0.0161x elapsed=0:01:16.80    \nframe=   39 fps=0.5 q=27.6 size=     256KiB time=00:00:01.23 bitrate=1700.7kbits/s speed=0.0159x elapsed=0:01:17.33    \nframe=   39 fps=0.5 q=27.6 size=     256KiB time=00:00:01.23 bitrate=1700.7kbits/s speed=0.0158x elapsed=0:01:17.86    \nframe=   40 fps=0.5 q=27.7 size=     256KiB time=00:00:01.26 bitrate=1655.9kbits/s speed=0.0162x elapsed=0:01:18.39    \nframe=   40 fps=0.5 q=27.7 size=     256KiB time=00:00:01.26 bitrate=1655.9kbits/s speed=0.0161x elapsed=0:01:18.91    \nframe=   40 fps=0.5 q=27.7 size=     256KiB time=00:00:01.26 bitrate=1655.9kbits/s speed=0.0159x elapsed=0:01:19.46    \nframe=   40 fps=0.5 q=27.7 size=     256KiB time=00:00:01.26 bitrate=1655.9kbits/s speed=0.0158x elapsed=0:01:20.00    \nframe=   41 fps=0.5 q=24.8 size=     256KiB time=00:00:01.30 bitrate=1613.5kbits/s speed=0.0161x elapsed=0:01:20.53    \nframe=   42 fps=0.5 q=25.4 size=     256KiB time=00:00:01.33 bitrate=1573.1kbits/s speed=0.0165x elapsed=0:01:21.04    \nframe=   42 fps=0.5 q=25.4 size=     256KiB time=00:00:01.33 bitrate=1573.1kbits/s speed=0.0163x elapsed=0:01:21.56    \nframe=   43 fps=0.5 q=27.7 size=     256KiB time=00:00:01.36 bitrate=1534.8kbits/s speed=0.0166x elapsed=0:01:22.10    \nframe=   43 fps=0.5 q=27.7 size=     256KiB time=00:00:01.36 bitrate=1534.8kbits/s speed=0.0165x elapsed=0:01:22.61    \nframe=   43 fps=0.5 q=27.7 size=     256KiB time=00:00:01.36 bitrate=1534.8kbits/s speed=0.0164x elapsed=0:01:23.14    \nframe=   43 fps=0.5 q=27.7 size=     256KiB time=00:00:01.36 bitrate=1534.8kbits/s speed=0.0163x elapsed=0:01:23.65    \nframe=   43 fps=0.5 q=27.7 size=     256KiB time=00:00:01.36 bitrate=1534.8kbits/s speed=0.0162x elapsed=0:01:24.18    \nframe=   44 fps=0.5 q=27.6 size=     256KiB time=00:00:01.40 bitrate=1498.2kbits/s speed=0.0165x elapsed=0:01:24.71    \nframe=   44 fps=0.5 q=27.6 size=     256KiB time=00:00:01.40 bitrate=1498.2kbits/s speed=0.0164x elapsed=0:01:25.25    \nframe=   44 fps=0.5 q=27.6 size=     256KiB time=00:00:01.40 bitrate=1498.2kbits/s speed=0.0163x elapsed=0:01:25.77    \nframe=   45 fps=0.5 q=27.9 size=     256KiB time=00:00:01.43 bitrate=1463.4kbits/s speed=0.0166x elapsed=0:01:26.29    \nframe=   45 fps=0.5 q=27.9 size=     256KiB time=00:00:01.43 bitrate=1463.4kbits/s speed=0.0165x elapsed=0:01:26.83    \nframe=   45 fps=0.5 q=27.9 size=     256KiB time=00:00:01.43 bitrate=1463.4kbits/s speed=0.0164x elapsed=0:01:27.37    \nframe=   45 fps=0.5 q=27.9 size=     256KiB time=00:00:01.43 bitrate=1463.4kbits/s speed=0.0163x elapsed=0:01:27.89    \nframe=   46 fps=0.5 q=24.8 size=     256KiB time=00:00:01.46 bitrate=1430.1kbits/s speed=0.0166x elapsed=0:01:28.41    \nframe=   46 fps=0.5 q=24.8 size=     256KiB time=00:00:01.46 bitrate=1430.1kbits/s speed=0.0165x elapsed=0:01:28.92    \nframe=   46 fps=0.5 q=24.8 size=     256KiB time=00:00:01.46 bitrate=1430.1kbits/s speed=0.0164x elapsed=0:01:29.44    \nframe=   47 fps=0.5 q=26.7 size=     256KiB time=00:00:01.50 bitrate=1398.3kbits/s speed=0.0167x elapsed=0:01:29.96    \nframe=   47 fps=0.5 q=26.7 size=     256KiB time=00:00:01.50 bitrate=1398.3kbits/s speed=0.0166x elapsed=0:01:30.48    \nframe=   47 fps=0.5 q=26.7 size=     256KiB time=00:00:01.50 bitrate=1398.3kbits/s speed=0.0165x elapsed=0:01:31.00    \nframe=   48 fps=0.5 q=28.1 size=     256KiB time=00:00:01.53 bitrate=1367.9kbits/s speed=0.0168x elapsed=0:01:31.52    \nframe=   48 fps=0.5 q=28.1 size=     256KiB time=00:00:01.53 bitrate=1367.9kbits/s speed=0.0167x elapsed=0:01:32.03    \nframe=   48 fps=0.5 q=28.1 size=     256KiB time=00:00:01.53 bitrate=1367.9kbits/s speed=0.0166x elapsed=0:01:32.56    \nframe=   48 fps=0.5 q=28.1 size=     256KiB time=00:00:01.53 bitrate=1367.9kbits/s speed=0.0165x elapsed=0:01:33.08    \nframe=   48 fps=0.5 q=28.1 size=     256KiB time=00:00:01.53 bitrate=1367.9kbits/s speed=0.0164x elapsed=0:01:33.62    \nframe=   48 fps=0.5 q=28.1 size=     256KiB time=00:00:01.53 bitrate=1367.9kbits/s speed=0.0163x elapsed=0:01:34.14    \nframe=   49 fps=0.5 q=28.2 size=     256KiB time=00:00:01.56 bitrate=1338.8kbits/s speed=0.0166x elapsed=0:01:34.66    \nframe=   49 fps=0.5 q=28.2 size=     256KiB time=00:00:01.56 bitrate=1338.8kbits/s speed=0.0165x elapsed=0:01:35.18    \nframe=   49 fps=0.5 q=28.2 size=     256KiB time=00:00:01.56 bitrate=1338.8kbits/s speed=0.0164x elapsed=0:01:35.68    \nframe=   49 fps=0.5 q=28.2 size=     256KiB time=00:00:01.56 bitrate=1338.8kbits/s speed=0.0163x elapsed=0:01:36.21    \nframe=   49 fps=0.5 q=28.2 size=     256KiB time=00:00:01.56 bitrate=1338.8kbits/s speed=0.0162x elapsed=0:01:36.73    \nframe=   50 fps=0.5 q=28.3 size=     256KiB time=00:00:01.56 bitrate=1338.8kbits/s speed=0.0161x elapsed=0:01:37.25    \nframe=   50 fps=0.5 q=28.3 size=     256KiB time=00:00:01.60 bitrate=1310.9kbits/s speed=0.0164x elapsed=0:01:37.77    \nframe=   51 fps=0.5 q=24.9 size=     256KiB time=00:00:01.63 bitrate=1284.2kbits/s speed=0.0166x elapsed=0:01:38.28    \nframe=   51 fps=0.5 q=24.9 size=     256KiB time=00:00:01.63 bitrate=1284.2kbits/s speed=0.0165x elapsed=0:01:38.80    \nframe=   51 fps=0.5 q=24.9 size=     256KiB time=00:00:01.63 bitrate=1284.2kbits/s speed=0.0164x elapsed=0:01:39.32    \nframe=   51 fps=0.5 q=24.9 size=     256KiB time=00:00:01.63 bitrate=1284.2kbits/s speed=0.0164x elapsed=0:01:39.83    \nframe=   51 fps=0.5 q=24.9 size=     256KiB time=00:00:01.63 bitrate=1284.2kbits/s speed=0.0163x elapsed=0:01:40.35    \nframe=   52 fps=0.5 q=26.4 size=     256KiB time=00:00:01.66 bitrate=1258.5kbits/s speed=0.0165x elapsed=0:01:40.88    \nframe=   52 fps=0.5 q=26.4 size=     256KiB time=00:00:01.66 bitrate=1258.5kbits/s speed=0.0164x elapsed=0:01:41.41    \nframe=   52 fps=0.5 q=26.4 size=     256KiB time=00:00:01.66 bitrate=1258.5kbits/s speed=0.0164x elapsed=0:01:41.93    \nframe=   52 fps=0.5 q=26.4 size=     256KiB time=00:00:01.66 bitrate=1258.5kbits/s speed=0.0163x elapsed=0:01:42.44    \nframe=   52 fps=0.5 q=26.4 size=     256KiB time=00:00:01.66 bitrate=1258.5kbits/s speed=0.0162x elapsed=0:01:42.96    \nframe=   52 fps=0.5 q=26.4 size=     256KiB time=00:00:01.66 bitrate=1258.5kbits/s speed=0.0161x elapsed=0:01:43.48    \nframe=   53 fps=0.5 q=28.4 size=     256KiB time=00:00:01.70 bitrate=1233.8kbits/s speed=0.0163x elapsed=0:01:44.00    \nframe=   53 fps=0.5 q=28.4 size=     256KiB time=00:00:01.70 bitrate=1233.8kbits/s speed=0.0163x elapsed=0:01:44.53    \nframe=   53 fps=0.5 q=28.4 size=     256KiB time=00:00:01.70 bitrate=1233.8kbits/s speed=0.0162x elapsed=0:01:45.05    \nframe=   53 fps=0.5 q=28.4 size=     256KiB time=00:00:01.70 bitrate=1233.8kbits/s speed=0.0161x elapsed=0:01:45.59    \nframe=   54 fps=0.5 q=28.5 size=     256KiB time=00:00:01.73 bitrate=1210.1kbits/s speed=0.0163x elapsed=0:01:46.12    \nframe=   54 fps=0.5 q=28.5 size=     256KiB time=00:00:01.73 bitrate=1210.1kbits/s speed=0.0162x elapsed=0:01:46.68    \nframe=   54 fps=0.5 q=28.5 size=     256KiB time=00:00:01.73 bitrate=1210.1kbits/s speed=0.0162x elapsed=0:01:47.20    \nframe=   54 fps=0.5 q=28.5 size=     256KiB time=00:00:01.73 bitrate=1210.1kbits/s speed=0.0161x elapsed=0:01:47.77    \nframe=   54 fps=0.5 q=28.5 size=     256KiB time=00:00:01.73 bitrate=1210.1kbits/s speed=0.016x elapsed=0:01:48.37    \nframe=   54 fps=0.5 q=28.5 size=     256KiB time=00:00:01.73 bitrate=1210.1kbits/s speed=0.0159x elapsed=0:01:48.96    \nframe=   54 fps=0.5 q=28.5 size=     256KiB time=00:00:01.73 bitrate=1210.1kbits/s speed=0.0158x elapsed=0:01:49.51    \nframe=   54 fps=0.5 q=28.5 size=     256KiB time=00:00:01.73 bitrate=1210.1kbits/s speed=0.0157x elapsed=0:01:50.08    \nframe=   54 fps=0.5 q=28.5 size=     256KiB time=00:00:01.73 bitrate=1210.1kbits/s speed=0.0157x elapsed=0:01:50.63    \nframe=   55 fps=0.5 q=25.1 size=     256KiB time=00:00:01.76 bitrate=1187.3kbits/s speed=0.0159x elapsed=0:01:51.17    \nframe=   55 fps=0.5 q=25.1 size=     256KiB time=00:00:01.76 bitrate=1187.3kbits/s speed=0.0158x elapsed=0:01:51.69    \nframe=   56 fps=0.5 q=26.9 size=     256KiB time=00:00:01.80 bitrate=1165.3kbits/s speed=0.016x elapsed=0:01:52.21    \nframe=   56 fps=0.5 q=26.9 size=     256KiB time=00:00:01.80 bitrate=1165.3kbits/s speed=0.016x elapsed=0:01:52.75    \nframe=   56 fps=0.5 q=26.9 size=     256KiB time=00:00:01.80 bitrate=1165.3kbits/s speed=0.0159x elapsed=0:01:53.28    \nframe=   56 fps=0.5 q=26.9 size=     256KiB time=00:00:01.80 bitrate=1165.3kbits/s speed=0.0158x elapsed=0:01:53.80    \nframe=   56 fps=0.5 q=26.9 size=     256KiB time=00:00:01.80 bitrate=1165.3kbits/s speed=0.0157x elapsed=0:01:54.32    \nframe=   57 fps=0.5 q=28.3 size=     256KiB time=00:00:01.83 bitrate=1144.1kbits/s speed=0.016x elapsed=0:01:54.83    \nframe=   57 fps=0.5 q=28.3 size=     256KiB time=00:00:01.83 bitrate=1144.1kbits/s speed=0.0159x elapsed=0:01:55.35    \nframe=   57 fps=0.5 q=28.3 size=     256KiB time=00:00:01.83 bitrate=1144.1kbits/s speed=0.0158x elapsed=0:01:55.87    \nframe=   58 fps=0.5 q=28.5 size=     256KiB time=00:00:01.86 bitrate=1123.7kbits/s speed=0.016x elapsed=0:01:56.38    \nframe=   58 fps=0.5 q=28.5 size=     256KiB time=00:00:01.86 bitrate=1123.7kbits/s speed=0.016x elapsed=0:01:56.91    \nframe=   58 fps=0.5 q=28.5 size=     256KiB time=00:00:01.86 bitrate=1123.7kbits/s speed=0.0159x elapsed=0:01:57.43    \nframe=   59 fps=0.5 q=28.7 size=     256KiB time=00:00:01.90 bitrate=1103.9kbits/s speed=0.0161x elapsed=0:01:57.96    \nframe=   59 fps=0.5 q=28.7 size=     256KiB time=00:00:01.90 bitrate=1103.9kbits/s speed=0.016x elapsed=0:01:58.47    \nframe=   59 fps=0.5 q=28.7 size=     256KiB time=00:00:01.90 bitrate=1103.9kbits/s speed=0.016x elapsed=0:01:59.00    \nframe=   60 fps=0.5 q=25.2 size=     256KiB time=00:00:01.93 bitrate=1084.9kbits/s speed=0.0162x elapsed=0:01:59.53    \nframe=   60 fps=0.5 q=25.2 size=     256KiB time=00:00:01.93 bitrate=1084.9kbits/s speed=0.0161x elapsed=0:02:00.04    \nframe=   60 fps=0.5 q=25.2 size=     256KiB time=00:00:01.93 bitrate=1084.9kbits/s speed=0.016x elapsed=0:02:00.56    \nframe=   60 fps=0.5 q=25.2 size=     256KiB time=00:00:01.93 bitrate=1084.9kbits/s speed=0.016x elapsed=0:02:01.08    \nframe=   60 fps=0.5 q=25.2 size=     256KiB time=00:00:01.93 bitrate=1084.9kbits/s speed=0.0159x elapsed=0:02:01.63    \nframe=   60 fps=0.5 q=25.2 size=     256KiB time=00:00:01.93 bitrate=1084.9kbits/s speed=0.0158x elapsed=0:02:02.16    \nframe=   61 fps=0.5 q=28.1 size=     256KiB time=00:00:01.96 bitrate=1066.5kbits/s speed=0.016x elapsed=0:02:02.70    \nframe=   61 fps=0.5 q=28.1 size=     256KiB time=00:00:01.96 bitrate=1066.5kbits/s speed=0.016x elapsed=0:02:03.22    \nframe=   61 fps=0.5 q=28.1 size=     256KiB time=00:00:01.96 bitrate=1066.5kbits/s speed=0.0159x elapsed=0:02:03.77    \nframe=   62 fps=0.5 q=29.0 size=     512KiB time=00:00:02.00 bitrate=2097.3kbits/s speed=0.0161x elapsed=0:02:04.29    \nframe=   62 fps=0.5 q=29.0 size=     512KiB time=00:00:02.00 bitrate=2097.3kbits/s speed=0.016x elapsed=0:02:04.82    \nframe=   62 fps=0.5 q=29.0 size=     512KiB time=00:00:02.00 bitrate=2097.3kbits/s speed=0.016x elapsed=0:02:05.35    \nframe=   63 fps=0.5 q=29.6 size=     512KiB time=00:00:02.03 bitrate=2062.9kbits/s speed=0.0162x elapsed=0:02:05.88    \nframe=   63 fps=0.5 q=29.6 size=     512KiB time=00:00:02.03 bitrate=2062.9kbits/s speed=0.0161x elapsed=0:02:06.40    \nframe=   64 fps=0.5 q=29.6 size=     512KiB time=00:00:02.06 bitrate=2029.7kbits/s speed=0.0163x elapsed=0:02:06.94    \nframe=   64 fps=0.5 q=29.6 size=     512KiB time=00:00:02.06 bitrate=2029.7kbits/s speed=0.0162x elapsed=0:02:07.46    \nframe=   64 fps=0.5 q=29.6 size=     512KiB time=00:00:02.06 bitrate=2029.7kbits/s speed=0.0161x elapsed=0:02:07.99    \nframe=   65 fps=0.5 q=25.6 size=     512KiB time=00:00:02.10 bitrate=1997.5kbits/s speed=0.0163x elapsed=0:02:08.51    \nframe=   65 fps=0.5 q=25.6 size=     512KiB time=00:00:02.10 bitrate=1997.5kbits/s speed=0.0163x elapsed=0:02:09.03    \nframe=   65 fps=0.5 q=25.6 size=     512KiB time=00:00:02.10 bitrate=1997.5kbits/s speed=0.0162x elapsed=0:02:09.56    \nframe=   65 fps=0.5 q=25.6 size=     512KiB time=00:00:02.10 bitrate=1997.5kbits/s speed=0.0161x elapsed=0:02:10.07    \nframe=   66 fps=0.5 q=27.7 size=     512KiB time=00:00:02.13 bitrate=1966.2kbits/s speed=0.0163x elapsed=0:02:10.59    \nframe=   66 fps=0.5 q=27.7 size=     512KiB time=00:00:02.13 bitrate=1966.2kbits/s speed=0.0163x elapsed=0:02:11.11    \nframe=   66 fps=0.5 q=27.7 size=     512KiB time=00:00:02.13 bitrate=1966.2kbits/s speed=0.0162x elapsed=0:02:11.62    \nframe=   67 fps=0.5 q=29.5 size=     512KiB time=00:00:02.16 bitrate=1936.0kbits/s speed=0.0164x elapsed=0:02:12.14    \nframe=   67 fps=0.5 q=29.5 size=     512KiB time=00:00:02.16 bitrate=1936.0kbits/s speed=0.0163x elapsed=0:02:12.66    \nframe=   67 fps=0.5 q=29.5 size=     512KiB time=00:00:02.16 bitrate=1936.0kbits/s speed=0.0163x elapsed=0:02:13.18    \nframe=   67 fps=0.5 q=29.5 size=     512KiB time=00:00:02.16 bitrate=1936.0kbits/s speed=0.0162x elapsed=0:02:13.75    \nframe=   68 fps=0.5 q=29.7 size=     512KiB time=00:00:02.20 bitrate=1906.7kbits/s speed=0.0164x elapsed=0:02:14.27    \nframe=   68 fps=0.5 q=29.7 size=     512KiB time=00:00:02.20 bitrate=1906.7kbits/s speed=0.0163x elapsed=0:02:14.78    \nframe=   68 fps=0.5 q=29.7 size=     512KiB time=00:00:02.20 bitrate=1906.7kbits/s speed=0.0163x elapsed=0:02:15.30    \nframe=   68 fps=0.5 q=29.7 size=     512KiB time=00:00:02.20 bitrate=1906.7kbits/s speed=0.0162x elapsed=0:02:15.82    \nframe=   69 fps=0.5 q=29.6 size=     512KiB time=00:00:02.23 bitrate=1878.2kbits/s speed=0.0164x elapsed=0:02:16.33    \nframe=   69 fps=0.5 q=29.6 size=     512KiB time=00:00:02.23 bitrate=1878.2kbits/s speed=0.0163x elapsed=0:02:16.85    \nframe=   70 fps=0.5 q=25.8 size=     512KiB time=00:00:02.26 bitrate=1850.6kbits/s speed=0.0165x elapsed=0:02:17.37    \nframe=   70 fps=0.5 q=25.8 size=     512KiB time=00:00:02.26 bitrate=1850.6kbits/s speed=0.0164x elapsed=0:02:17.89    \nframe=   70 fps=0.5 q=25.8 size=     512KiB time=00:00:02.26 bitrate=1850.6kbits/s speed=0.0164x elapsed=0:02:18.42    \nframe=   70 fps=0.5 q=25.8 size=     512KiB time=00:00:02.26 bitrate=1850.6kbits/s speed=0.0163x elapsed=0:02:18.99    \nframe=   70 fps=0.5 q=25.8 size=     512KiB time=00:00:02.26 bitrate=1850.6kbits/s speed=0.0162x elapsed=0:02:19.54    \nframe=   70 fps=0.5 q=25.8 size=     512KiB time=00:00:02.26 bitrate=1850.6kbits/s speed=0.0162x elapsed=0:02:20.07    \nframe=   70 fps=0.5 q=25.8 size=     512KiB time=00:00:02.26 bitrate=1850.6kbits/s speed=0.0161x elapsed=0:02:20.64    \nframe=   70 fps=0.5 q=25.8 size=     512KiB time=00:00:02.26 bitrate=1850.6kbits/s speed=0.0161x elapsed=0:02:21.21    \nframe=   70 fps=0.5 q=25.8 size=     512KiB time=00:00:02.26 bitrate=1850.6kbits/s speed=0.016x elapsed=0:02:21.85    \nframe=   70 fps=0.5 q=25.8 size=     512KiB time=00:00:02.26 bitrate=1850.6kbits/s speed=0.0159x elapsed=0:02:22.48    \nframe=   70 fps=0.5 q=25.8 size=     512KiB time=00:00:02.26 bitrate=1850.6kbits/s speed=0.0158x elapsed=0:02:23.07    \nframe=   70 fps=0.5 q=25.8 size=     512KiB time=00:00:02.26 bitrate=1850.6kbits/s speed=0.0158x elapsed=0:02:23.67    \nframe=   70 fps=0.5 q=25.8 size=     512KiB time=00:00:02.26 bitrate=1850.6kbits/s speed=0.0157x elapsed=0:02:24.23    \nframe=   71 fps=0.5 q=28.7 size=     512KiB time=00:00:02.26 bitrate=1850.6kbits/s speed=0.0157x elapsed=0:02:24.76    \nframe=   72 fps=0.5 q=29.7 size=     512KiB time=00:00:02.33 bitrate=1797.7kbits/s speed=0.0161x elapsed=0:02:25.29    \nframe=   72 fps=0.5 q=29.7 size=     512KiB time=00:00:02.33 bitrate=1797.7kbits/s speed=0.016x elapsed=0:02:25.82    \nframe=   72 fps=0.5 q=29.7 size=     512KiB time=00:00:02.33 bitrate=1797.7kbits/s speed=0.0159x elapsed=0:02:26.35    \nframe=   72 fps=0.5 q=29.7 size=     512KiB time=00:00:02.33 bitrate=1797.7kbits/s speed=0.0159x elapsed=0:02:26.88    \nframe=   73 fps=0.5 q=30.0 size=     512KiB time=00:00:02.36 bitrate=1772.4kbits/s speed=0.0161x elapsed=0:02:27.41    \nframe=   73 fps=0.5 q=30.0 size=     512KiB time=00:00:02.36 bitrate=1772.4kbits/s speed=0.016x elapsed=0:02:27.92    \nframe=   73 fps=0.5 q=30.0 size=     512KiB time=00:00:02.36 bitrate=1772.4kbits/s speed=0.0159x elapsed=0:02:28.44    \nframe=   74 fps=0.5 q=30.1 size=     512KiB time=00:00:02.40 bitrate=1747.8kbits/s speed=0.0161x elapsed=0:02:28.95    \nframe=   74 fps=0.5 q=30.1 size=     512KiB time=00:00:02.40 bitrate=1747.8kbits/s speed=0.0161x elapsed=0:02:29.47    \nframe=   74 fps=0.5 q=30.1 size=     512KiB time=00:00:02.40 bitrate=1747.8kbits/s speed=0.016x elapsed=0:02:30.00    \nframe=   75 fps=0.5 q=25.8 size=     512KiB time=00:00:02.43 bitrate=1723.8kbits/s speed=0.0162x elapsed=0:02:30.53    \nframe=   75 fps=0.5 q=25.8 size=     512KiB time=00:00:02.43 bitrate=1723.8kbits/s speed=0.0161x elapsed=0:02:31.05    \nframe=   76 fps=0.5 q=28.4 size=     512KiB time=00:00:02.46 bitrate=1700.5kbits/s speed=0.0163x elapsed=0:02:31.57    \nframe=   76 fps=0.5 q=28.4 size=     512KiB time=00:00:02.46 bitrate=1700.5kbits/s speed=0.0162x elapsed=0:02:32.08    \nframe=   77 fps=0.5 q=30.1 size=     512KiB time=00:00:02.50 bitrate=1677.9kbits/s speed=0.0164x elapsed=0:02:32.61    \nframe=   77 fps=0.5 q=30.1 size=     512KiB time=00:00:02.50 bitrate=1677.9kbits/s speed=0.0163x elapsed=0:02:33.14    \nframe=   77 fps=0.5 q=30.1 size=     512KiB time=00:00:02.50 bitrate=1677.9kbits/s speed=0.0163x elapsed=0:02:33.66    \nframe=   77 fps=0.5 q=30.1 size=     512KiB time=00:00:02.50 bitrate=1677.9kbits/s speed=0.0162x elapsed=0:02:34.18    \nframe=   78 fps=0.5 q=30.4 size=     512KiB time=00:00:02.53 bitrate=1655.8kbits/s speed=0.0164x elapsed=0:02:34.69    \nframe=   78 fps=0.5 q=30.4 size=     512KiB time=00:00:02.53 bitrate=1655.8kbits/s speed=0.0163x elapsed=0:02:35.21    \nframe=   79 fps=0.5 q=25.8 size=     512KiB time=00:00:02.56 bitrate=1634.3kbits/s speed=0.0165x elapsed=0:02:35.73    \nframe=   79 fps=0.5 q=25.8 size=     512KiB time=00:00:02.56 bitrate=1634.3kbits/s speed=0.0164x elapsed=0:02:36.27    \nframe=   79 fps=0.5 q=25.8 size=     512KiB time=00:00:02.56 bitrate=1634.3kbits/s speed=0.0164x elapsed=0:02:36.79    \nframe=   80 fps=0.5 q=28.1 size=     512KiB time=00:00:02.60 bitrate=1613.3kbits/s speed=0.0165x elapsed=0:02:37.31    \nframe=   80 fps=0.5 q=28.1 size=     512KiB time=00:00:02.60 bitrate=1613.3kbits/s speed=0.0165x elapsed=0:02:37.85    \nframe=   80 fps=0.5 q=28.1 size=     512KiB time=00:00:02.60 bitrate=1613.3kbits/s speed=0.0164x elapsed=0:02:38.36    \nframe=   81 fps=0.5 q=29.8 size=     512KiB time=00:00:02.63 bitrate=1592.9kbits/s speed=0.0166x elapsed=0:02:38.88    \nframe=   81 fps=0.5 q=29.8 size=     512KiB time=00:00:02.63 bitrate=1592.9kbits/s speed=0.0165x elapsed=0:02:39.40    \nframe=   82 fps=0.5 q=30.2 size=     512KiB time=00:00:02.66 bitrate=1573.0kbits/s speed=0.0167x elapsed=0:02:39.90    \nframe=   82 fps=0.5 q=30.2 size=     512KiB time=00:00:02.66 bitrate=1573.0kbits/s speed=0.0166x elapsed=0:02:40.43    \nframe=   82 fps=0.5 q=30.2 size=     512KiB time=00:00:02.66 bitrate=1573.0kbits/s speed=0.0166x elapsed=0:02:40.94    \nframe=   83 fps=0.5 q=30.1 size=     512KiB time=00:00:02.70 bitrate=1553.6kbits/s speed=0.0167x elapsed=0:02:41.47    \nframe=   83 fps=0.5 q=30.1 size=     512KiB time=00:00:02.70 bitrate=1553.6kbits/s speed=0.0167x elapsed=0:02:42.01    \nframe=   83 fps=0.5 q=30.1 size=     512KiB time=00:00:02.70 bitrate=1553.6kbits/s speed=0.0166x elapsed=0:02:42.53    \nframe=   83 fps=0.5 q=30.1 size=     512KiB time=00:00:02.70 bitrate=1553.6kbits/s speed=0.0166x elapsed=0:02:43.06    \nframe=   84 fps=0.5 q=26.0 size=     512KiB time=00:00:02.73 bitrate=1534.6kbits/s speed=0.0167x elapsed=0:02:43.58    \nframe=   85 fps=0.5 q=28.6 size=     512KiB time=00:00:02.76 bitrate=1516.1kbits/s speed=0.0169x elapsed=0:02:44.10    \nframe=   86 fps=0.5 q=30.3 size=     512KiB time=00:00:02.80 bitrate=1498.1kbits/s speed=0.017x elapsed=0:02:44.62    \nframe=   86 fps=0.5 q=30.3 size=     512KiB time=00:00:02.80 bitrate=1498.1kbits/s speed=0.017x elapsed=0:02:45.17    \nframe=   86 fps=0.5 q=30.3 size=     512KiB time=00:00:02.80 bitrate=1498.1kbits/s speed=0.0169x elapsed=0:02:45.70    \nframe=   86 fps=0.5 q=30.3 size=     512KiB time=00:00:02.80 bitrate=1498.1kbits/s speed=0.0168x elapsed=0:02:46.22    \nframe=   86 fps=0.5 q=30.3 size=     512KiB time=00:00:02.80 bitrate=1498.1kbits/s speed=0.0168x elapsed=0:02:46.76    \nframe=   87 fps=0.5 q=30.8 size=     512KiB time=00:00:02.83 bitrate=1480.5kbits/s speed=0.0169x elapsed=0:02:47.29    \nframe=   87 fps=0.5 q=30.8 size=     512KiB time=00:00:02.83 bitrate=1480.5kbits/s speed=0.0169x elapsed=0:02:47.79    \nframe=   87 fps=0.5 q=30.8 size=     512KiB time=00:00:02.83 bitrate=1480.5kbits/s speed=0.0168x elapsed=0:02:48.32    \nframe=   87 fps=0.5 q=30.8 size=     512KiB time=00:00:02.83 bitrate=1480.5kbits/s speed=0.0168x elapsed=0:02:48.84    \nframe=   88 fps=0.5 q=30.7 size=     512KiB time=00:00:02.86 bitrate=1463.3kbits/s speed=0.0169x elapsed=0:02:49.36    \nframe=   88 fps=0.5 q=30.7 size=     512KiB time=00:00:02.86 bitrate=1463.3kbits/s speed=0.0169x elapsed=0:02:49.87    \nframe=   88 fps=0.5 q=30.7 size=     512KiB time=00:00:02.86 bitrate=1463.3kbits/s speed=0.0168x elapsed=0:02:50.40    \nframe=   89 fps=0.5 q=26.1 size=     512KiB time=00:00:02.90 bitrate=1446.4kbits/s speed=0.017x elapsed=0:02:50.93    \nframe=   89 fps=0.5 q=26.1 size=     512KiB time=00:00:02.90 bitrate=1446.4kbits/s speed=0.0169x elapsed=0:02:51.46    \nframe=   89 fps=0.5 q=26.1 size=     512KiB time=00:00:02.90 bitrate=1446.4kbits/s speed=0.0169x elapsed=0:02:51.98    \nframe=   90 fps=0.5 q=29.2 size=     512KiB time=00:00:02.93 bitrate=1430.0kbits/s speed=0.017x elapsed=0:02:52.53    \nframe=   90 fps=0.5 q=29.2 size=     512KiB time=00:00:02.93 bitrate=1430.0kbits/s speed=0.0169x elapsed=0:02:53.08    \nframe=   91 fps=0.5 q=30.5 size=     768KiB time=00:00:02.96 bitrate=2120.8kbits/s speed=0.0171x elapsed=0:02:53.60    \nframe=   91 fps=0.5 q=30.5 size=     768KiB time=00:00:02.96 bitrate=2120.8kbits/s speed=0.017x elapsed=0:02:54.13    \nframe=   91 fps=0.5 q=30.5 size=     768KiB time=00:00:02.96 bitrate=2120.8kbits/s speed=0.017x elapsed=0:02:54.68    \nframe=   92 fps=0.5 q=31.0 size=     768KiB time=00:00:03.00 bitrate=2097.3kbits/s speed=0.0171x elapsed=0:02:55.22    \nframe=   92 fps=0.5 q=31.0 size=     768KiB time=00:00:03.00 bitrate=2097.3kbits/s speed=0.0171x elapsed=0:02:55.74    \nframe=   92 fps=0.5 q=31.0 size=     768KiB time=00:00:03.00 bitrate=2097.3kbits/s speed=0.017x elapsed=0:02:56.26    \nframe=   92 fps=0.5 q=31.0 size=     768KiB time=00:00:03.00 bitrate=2097.3kbits/s speed=0.017x elapsed=0:02:56.80    \nframe=   92 fps=0.5 q=31.0 size=     768KiB time=00:00:03.00 bitrate=2097.3kbits/s speed=0.0169x elapsed=0:02:57.32    \nframe=   92 fps=0.5 q=31.0 size=     768KiB time=00:00:03.00 bitrate=2097.3kbits/s speed=0.0169x elapsed=0:02:57.87    \nframe=   92 fps=0.5 q=31.0 size=     768KiB time=00:00:03.00 bitrate=2097.3kbits/s speed=0.0168x elapsed=0:02:58.43    \nframe=   92 fps=0.5 q=31.0 size=     768KiB time=00:00:03.00 bitrate=2097.3kbits/s speed=0.0168x elapsed=0:02:59.00    \nframe=   92 fps=0.5 q=31.0 size=     768KiB time=00:00:03.00 bitrate=2097.3kbits/s speed=0.0167x elapsed=0:02:59.61    \nframe=   92 fps=0.5 q=31.0 size=     768KiB time=00:00:03.00 bitrate=2097.3kbits/s speed=0.0167x elapsed=0:03:00.14    \nframe=   92 fps=0.5 q=31.0 size=     768KiB time=00:00:03.00 bitrate=2097.3kbits/s speed=0.0166x elapsed=0:03:00.68    \nframe=   93 fps=0.5 q=30.9 size=     768KiB time=00:00:03.03 bitrate=2074.2kbits/s speed=0.0167x elapsed=0:03:01.21    \nframe=   93 fps=0.5 q=30.9 size=     768KiB time=00:00:03.03 bitrate=2074.2kbits/s speed=0.0167x elapsed=0:03:01.76    \nframe=   93 fps=0.5 q=30.9 size=     768KiB time=00:00:03.03 bitrate=2074.2kbits/s speed=0.0166x elapsed=0:03:02.31    \nframe=   94 fps=0.5 q=26.7 size=     768KiB time=00:00:03.06 bitrate=2051.7kbits/s speed=0.0168x elapsed=0:03:02.84    \nframe=   94 fps=0.5 q=26.7 size=     768KiB time=00:00:03.06 bitrate=2051.7kbits/s speed=0.0167x elapsed=0:03:03.38    \nframe=   95 fps=0.5 q=29.4 size=     768KiB time=00:00:03.10 bitrate=2029.6kbits/s speed=0.0169x elapsed=0:03:03.89    \nframe=   95 fps=0.5 q=29.4 size=     768KiB time=00:00:03.10 bitrate=2029.6kbits/s speed=0.0168x elapsed=0:03:04.41    \nframe=   95 fps=0.5 q=29.4 size=     768KiB time=00:00:03.10 bitrate=2029.6kbits/s speed=0.0168x elapsed=0:03:05.00    \nframe=   95 fps=0.5 q=29.4 size=     768KiB time=00:00:03.10 bitrate=2029.6kbits/s speed=0.0167x elapsed=0:03:05.55    \nframe=   96 fps=0.5 q=31.1 size=     768KiB time=00:00:03.13 bitrate=2008.0kbits/s speed=0.0168x elapsed=0:03:06.11    \nframe=   96 fps=0.5 q=31.1 size=     768KiB time=00:00:03.13 bitrate=2008.0kbits/s speed=0.0168x elapsed=0:03:06.68    \nframe=   96 fps=0.5 q=31.1 size=     768KiB time=00:00:03.13 bitrate=2008.0kbits/s speed=0.0167x elapsed=0:03:07.22    \nframe=   96 fps=0.5 q=31.1 size=     768KiB time=00:00:03.13 bitrate=2008.0kbits/s speed=0.0167x elapsed=0:03:07.78    \nframe=   96 fps=0.5 q=31.1 size=     768KiB time=00:00:03.13 bitrate=2008.0kbits/s speed=0.0166x elapsed=0:03:08.31    \nframe=   96 fps=0.5 q=31.1 size=     768KiB time=00:00:03.13 bitrate=2008.0kbits/s speed=0.0166x elapsed=0:03:08.90    \nframe=   96 fps=0.5 q=31.1 size=     768KiB time=00:00:03.13 bitrate=2008.0kbits/s speed=0.0165x elapsed=0:03:09.45    \nframe=   96 fps=0.5 q=31.1 size=     768KiB time=00:00:03.13 bitrate=2008.0kbits/s speed=0.0165x elapsed=0:03:09.98    \nframe=   96 fps=0.5 q=31.1 size=     768KiB time=00:00:03.13 bitrate=2008.0kbits/s speed=0.0164x elapsed=0:03:10.51    \nframe=   96 fps=0.5 q=31.1 size=     768KiB time=00:00:03.13 bitrate=2008.0kbits/s speed=0.0164x elapsed=0:03:11.05    \nframe=   96 fps=0.5 q=31.1 size=     768KiB time=00:00:03.13 bitrate=2008.0kbits/s speed=0.0164x elapsed=0:03:11.63    \nframe=   96 fps=0.5 q=31.1 size=     768KiB time=00:00:03.13 bitrate=2008.0kbits/s speed=0.0163x elapsed=0:03:12.22    \nframe=   96 fps=0.5 q=31.1 size=     768KiB time=00:00:03.13 bitrate=2008.0kbits/s speed=0.0163x elapsed=0:03:12.78    \nframe=   96 fps=0.5 q=31.1 size=     768KiB time=00:00:03.13 bitrate=2008.0kbits/s speed=0.0162x elapsed=0:03:13.34    \nframe=   97 fps=0.5 q=31.5 size=     768KiB time=00:00:03.16 bitrate=1986.9kbits/s speed=0.0163x elapsed=0:03:13.89    \nframe=   97 fps=0.5 q=31.5 size=     768KiB time=00:00:03.16 bitrate=1986.9kbits/s speed=0.0163x elapsed=0:03:14.43    \nframe=   97 fps=0.5 q=31.5 size=     768KiB time=00:00:03.16 bitrate=1986.9kbits/s speed=0.0162x elapsed=0:03:14.97    \nframe=   97 fps=0.5 q=31.5 size=     768KiB time=00:00:03.16 bitrate=1986.9kbits/s speed=0.0162x elapsed=0:03:15.52    \nframe=   97 fps=0.5 q=31.5 size=     768KiB time=00:00:03.16 bitrate=1986.9kbits/s speed=0.0162x elapsed=0:03:16.03    \nframe=   97 fps=0.5 q=31.5 size=     768KiB time=00:00:03.16 bitrate=1986.9kbits/s speed=0.0161x elapsed=0:03:16.56    \nframe=   98 fps=0.5 q=26.8 size=     768KiB time=00:00:03.20 bitrate=1966.2kbits/s speed=0.0162x elapsed=0:03:17.09    \nframe=   98 fps=0.5 q=26.8 size=     768KiB time=00:00:03.20 bitrate=1966.2kbits/s speed=0.0162x elapsed=0:03:17.61    \nframe=   98 fps=0.5 q=26.8 size=     768KiB time=00:00:03.20 bitrate=1966.2kbits/s speed=0.0162x elapsed=0:03:18.13    \nframe=   98 fps=0.5 q=26.8 size=     768KiB time=00:00:03.20 bitrate=1966.2kbits/s speed=0.0161x elapsed=0:03:18.64    \nframe=   99 fps=0.5 q=29.3 size=     768KiB time=00:00:03.23 bitrate=1945.9kbits/s speed=0.0162x elapsed=0:03:19.16    \nframe=   99 fps=0.5 q=29.3 size=     768KiB time=00:00:03.23 bitrate=1945.9kbits/s speed=0.0162x elapsed=0:03:19.71    \nframe=   99 fps=0.5 q=29.3 size=     768KiB time=00:00:03.23 bitrate=1945.9kbits/s speed=0.0161x elapsed=0:03:20.22    \nframe=   99 fps=0.5 q=29.3 size=     768KiB time=00:00:03.23 bitrate=1945.9kbits/s speed=0.0161x elapsed=0:03:20.74    \nframe=  100 fps=0.5 q=31.1 size=     768KiB time=00:00:03.26 bitrate=1926.1kbits/s speed=0.0162x elapsed=0:03:21.26    \nframe=  100 fps=0.5 q=31.1 size=     768KiB time=00:00:03.26 bitrate=1926.1kbits/s speed=0.0162x elapsed=0:03:21.77    \nframe=  101 fps=0.5 q=31.8 size=     768KiB time=00:00:03.30 bitrate=1906.6kbits/s speed=0.0163x elapsed=0:03:22.29    \nframe=  101 fps=0.5 q=31.8 size=     768KiB time=00:00:03.30 bitrate=1906.6kbits/s speed=0.0163x elapsed=0:03:22.80    \nframe=  101 fps=0.5 q=31.8 size=     768KiB time=00:00:03.30 bitrate=1906.6kbits/s speed=0.0162x elapsed=0:03:23.33    \nframe=  101 fps=0.5 q=31.8 size=     768KiB time=00:00:03.30 bitrate=1906.6kbits/s speed=0.0162x elapsed=0:03:23.85    \nframe=  102 fps=0.5 q=31.6 size=     768KiB time=00:00:03.33 bitrate=1887.5kbits/s speed=0.0163x elapsed=0:03:24.38    \nframe=  102 fps=0.5 q=31.6 size=     768KiB time=00:00:03.33 bitrate=1887.5kbits/s speed=0.0163x elapsed=0:03:24.89    \nframe=  103 fps=0.5 q=27.1 size=     768KiB time=00:00:03.36 bitrate=1868.9kbits/s speed=0.0164x elapsed=0:03:25.40    \nframe=  103 fps=0.5 q=27.1 size=     768KiB time=00:00:03.36 bitrate=1868.9kbits/s speed=0.0163x elapsed=0:03:25.94    \nframe=  104 fps=0.5 q=29.5 size=     768KiB time=00:00:03.40 bitrate=1850.5kbits/s speed=0.0165x elapsed=0:03:26.48    \nframe=  104 fps=0.5 q=29.5 size=     768KiB time=00:00:03.40 bitrate=1850.5kbits/s speed=0.0164x elapsed=0:03:26.98    \nframe=  104 fps=0.5 q=29.5 size=     768KiB time=00:00:03.40 bitrate=1850.5kbits/s speed=0.0164x elapsed=0:03:27.51    \nframe=  105 fps=0.5 q=31.0 size=     768KiB time=00:00:03.43 bitrate=1832.6kbits/s speed=0.0165x elapsed=0:03:28.02    \nframe=  105 fps=0.5 q=31.0 size=     768KiB time=00:00:03.43 bitrate=1832.6kbits/s speed=0.0165x elapsed=0:03:28.53    \nframe=  105 fps=0.5 q=31.0 size=     768KiB time=00:00:03.43 bitrate=1832.6kbits/s speed=0.0164x elapsed=0:03:29.05    \nframe=  105 fps=0.5 q=31.0 size=     768KiB time=00:00:03.43 bitrate=1832.6kbits/s speed=0.0164x elapsed=0:03:29.56    \nframe=  105 fps=0.5 q=31.0 size=     768KiB time=00:00:03.43 bitrate=1832.6kbits/s speed=0.0163x elapsed=0:03:30.10    \nframe=  106 fps=0.5 q=32.0 size=     768KiB time=00:00:03.46 bitrate=1814.9kbits/s speed=0.0165x elapsed=0:03:30.65    \nframe=  106 fps=0.5 q=32.0 size=     768KiB time=00:00:03.46 bitrate=1814.9kbits/s speed=0.0164x elapsed=0:03:31.17    \nframe=  106 fps=0.5 q=32.0 size=     768KiB time=00:00:03.46 bitrate=1814.9kbits/s speed=0.0164x elapsed=0:03:31.67    \nframe=  107 fps=0.5 q=31.9 size=     768KiB time=00:00:03.50 bitrate=1797.7kbits/s speed=0.0165x elapsed=0:03:32.19    \nframe=  107 fps=0.5 q=31.9 size=     768KiB time=00:00:03.50 bitrate=1797.7kbits/s speed=0.0165x elapsed=0:03:32.70    \nframe=  107 fps=0.5 q=31.9 size=     768KiB time=00:00:03.50 bitrate=1797.7kbits/s speed=0.0164x elapsed=0:03:33.25    \nframe=  107 fps=0.5 q=31.9 size=     768KiB time=00:00:03.50 bitrate=1797.7kbits/s speed=0.0164x elapsed=0:03:33.77    \nframe=  108 fps=0.5 q=27.9 size=     768KiB time=00:00:03.53 bitrate=1780.7kbits/s speed=0.0165x elapsed=0:03:34.28    \nframe=  109 fps=0.5 q=30.1 size=     768KiB time=00:00:03.56 bitrate=1764.1kbits/s speed=0.0166x elapsed=0:03:34.80    \nframe=  109 fps=0.5 q=30.1 size=     768KiB time=00:00:03.56 bitrate=1764.1kbits/s speed=0.0166x elapsed=0:03:35.31    \nframe=  110 fps=0.5 q=31.7 size=     768KiB time=00:00:03.60 bitrate=1747.7kbits/s speed=0.0167x elapsed=0:03:35.83    \nframe=  110 fps=0.5 q=31.7 size=     768KiB time=00:00:03.60 bitrate=1747.7kbits/s speed=0.0166x elapsed=0:03:36.35    \nframe=  111 fps=0.5 q=32.3 size=     768KiB time=00:00:03.63 bitrate=1731.7kbits/s speed=0.0168x elapsed=0:03:36.88    \nframe=  111 fps=0.5 q=32.3 size=     768KiB time=00:00:03.63 bitrate=1731.7kbits/s speed=0.0167x elapsed=0:03:37.40    \nframe=  111 fps=0.5 q=32.3 size=     768KiB time=00:00:03.63 bitrate=1731.7kbits/s speed=0.0167x elapsed=0:03:37.93    \nframe=  111 fps=0.5 q=32.3 size=     768KiB time=00:00:03.63 bitrate=1731.7kbits/s speed=0.0166x elapsed=0:03:38.45    \nframe=  112 fps=0.5 q=32.6 size=     768KiB time=00:00:03.66 bitrate=1715.9kbits/s speed=0.0167x elapsed=0:03:38.99    \nframe=  112 fps=0.5 q=32.6 size=     768KiB time=00:00:03.66 bitrate=1715.9kbits/s speed=0.0167x elapsed=0:03:39.54    \nframe=  113 fps=0.5 q=28.7 size=     768KiB time=00:00:03.70 bitrate=1700.5kbits/s speed=0.0168x elapsed=0:03:40.04    \nframe=  113 fps=0.5 q=28.7 size=     768KiB time=00:00:03.70 bitrate=1700.5kbits/s speed=0.0168x elapsed=0:03:40.57    \nframe=  113 fps=0.5 q=28.7 size=     768KiB time=00:00:03.70 bitrate=1700.5kbits/s speed=0.0167x elapsed=0:03:41.12    \nframe=  114 fps=0.5 q=31.7 size=     768KiB time=00:00:03.73 bitrate=1685.3kbits/s speed=0.0168x elapsed=0:03:41.64    \nframe=  114 fps=0.5 q=31.7 size=     768KiB time=00:00:03.73 bitrate=1685.3kbits/s speed=0.0168x elapsed=0:03:42.18    \nframe=  114 fps=0.5 q=31.7 size=     768KiB time=00:00:03.73 bitrate=1685.3kbits/s speed=0.0168x elapsed=0:03:42.70    \nframe=  114 fps=0.5 q=31.7 size=     768KiB time=00:00:03.73 bitrate=1685.3kbits/s speed=0.0167x elapsed=0:03:43.22    \nframe=  114 fps=0.5 q=31.7 size=     768KiB time=00:00:03.73 bitrate=1685.3kbits/s speed=0.0167x elapsed=0:03:43.76    \nframe=  114 fps=0.5 q=31.7 size=     768KiB time=00:00:03.73 bitrate=1685.3kbits/s speed=0.0166x elapsed=0:03:44.27    \nframe=  115 fps=0.5 q=33.1 size=     768KiB time=00:00:03.76 bitrate=1670.4kbits/s speed=0.0168x elapsed=0:03:44.80    \nframe=  115 fps=0.5 q=33.1 size=     768KiB time=00:00:03.76 bitrate=1670.4kbits/s speed=0.0167x elapsed=0:03:45.33    \nframe=  115 fps=0.5 q=33.1 size=     768KiB time=00:00:03.76 bitrate=1670.4kbits/s speed=0.0167x elapsed=0:03:45.84    \nframe=  116 fps=0.5 q=33.5 size=     768KiB time=00:00:03.80 bitrate=1655.7kbits/s speed=0.0168x elapsed=0:03:46.36    \nframe=  116 fps=0.5 q=33.5 size=     768KiB time=00:00:03.80 bitrate=1655.7kbits/s speed=0.0167x elapsed=0:03:46.87    \nframe=  116 fps=0.5 q=33.5 size=     768KiB time=00:00:03.80 bitrate=1655.7kbits/s speed=0.0167x elapsed=0:03:47.40    \nframe=  117 fps=0.5 q=28.8 size=     768KiB time=00:00:03.83 bitrate=1641.3kbits/s speed=0.0168x elapsed=0:03:47.92    \nframe=  117 fps=0.5 q=28.8 size=     768KiB time=00:00:03.83 bitrate=1641.3kbits/s speed=0.0168x elapsed=0:03:48.46    \nframe=  117 fps=0.5 q=28.8 size=     768KiB time=00:00:03.83 bitrate=1641.3kbits/s speed=0.0167x elapsed=0:03:48.99    \nframe=  117 fps=0.5 q=28.8 size=     768KiB time=00:00:03.83 bitrate=1641.3kbits/s speed=0.0167x elapsed=0:03:49.52    \nframe=  117 fps=0.5 q=28.8 size=     768KiB time=00:00:03.83 bitrate=1641.3kbits/s speed=0.0167x elapsed=0:03:50.03    \nframe=  118 fps=0.5 q=31.8 size=     768KiB time=00:00:03.86 bitrate=1627.2kbits/s speed=0.0168x elapsed=0:03:50.56    \nframe=  118 fps=0.5 q=31.8 size=     768KiB time=00:00:03.86 bitrate=1627.2kbits/s speed=0.0167x elapsed=0:03:51.09    \nframe=  118 fps=0.5 q=31.8 size=     768KiB time=00:00:03.86 bitrate=1627.2kbits/s speed=0.0167x elapsed=0:03:51.61    \nframe=  118 fps=0.5 q=31.8 size=     768KiB time=00:00:03.86 bitrate=1627.2kbits/s speed=0.0167x elapsed=0:03:52.13    \nframe=  118 fps=0.5 q=31.8 size=     768KiB time=00:00:03.86 bitrate=1627.2kbits/s speed=0.0166x elapsed=0:03:52.64    \nframe=  118 fps=0.5 q=31.8 size=     768KiB time=00:00:03.86 bitrate=1627.2kbits/s speed=0.0166x elapsed=0:03:53.17    \nframe=  119 fps=0.5 q=33.6 size=     768KiB time=00:00:03.90 bitrate=1613.3kbits/s speed=0.0167x elapsed=0:03:53.71    \nframe=  119 fps=0.5 q=33.6 size=     768KiB time=00:00:03.90 bitrate=1613.3kbits/s speed=0.0166x elapsed=0:03:54.26    \nframe=  119 fps=0.5 q=33.6 size=     768KiB time=00:00:03.90 bitrate=1613.3kbits/s speed=0.0166x elapsed=0:03:54.84    \nframe=  119 fps=0.5 q=33.6 size=     768KiB time=00:00:03.90 bitrate=1613.3kbits/s speed=0.0166x elapsed=0:03:55.43    \nframe=  119 fps=0.5 q=33.6 size=     768KiB time=00:00:03.90 bitrate=1613.3kbits/s speed=0.0165x elapsed=0:03:55.97    \nframe=  119 fps=0.5 q=33.6 size=     768KiB time=00:00:03.90 bitrate=1613.3kbits/s speed=0.0165x elapsed=0:03:56.54    \nframe=  119 fps=0.5 q=33.6 size=     768KiB time=00:00:03.90 bitrate=1613.3kbits/s speed=0.0164x elapsed=0:03:57.09    \nframe=  119 fps=0.5 q=33.6 size=     768KiB time=00:00:03.90 bitrate=1613.3kbits/s speed=0.0164x elapsed=0:03:57.65    \nframe=  119 fps=0.5 q=33.6 size=     768KiB time=00:00:03.90 bitrate=1613.3kbits/s speed=0.0164x elapsed=0:03:58.21    \nframe=  120 fps=0.5 q=29.3 size=     768KiB time=00:00:03.93 bitrate=1599.6kbits/s speed=0.0165x elapsed=0:03:58.77    \nframe=  120 fps=0.5 q=29.3 size=     768KiB time=00:00:03.93 bitrate=1599.6kbits/s speed=0.0164x elapsed=0:03:59.33    \nframe=  120 fps=0.5 q=29.3 size=     768KiB time=00:00:03.93 bitrate=1599.6kbits/s speed=0.0164x elapsed=0:03:59.86    \nframe=  120 fps=0.5 q=29.3 size=     768KiB time=00:00:03.93 bitrate=1599.6kbits/s speed=0.0164x elapsed=0:04:00.41    \nframe=  120 fps=0.5 q=29.3 size=     768KiB time=00:00:03.93 bitrate=1599.6kbits/s speed=0.0163x elapsed=0:04:00.94    \nframe=  121 fps=0.5 q=32.3 size=    1024KiB time=00:00:03.96 bitrate=2114.9kbits/s speed=0.0164x elapsed=0:04:01.48    \nframe=  121 fps=0.5 q=32.3 size=    1024KiB time=00:00:03.96 bitrate=2114.9kbits/s speed=0.0164x elapsed=0:04:02.01    \nframe=  121 fps=0.5 q=32.3 size=    1024KiB time=00:00:03.96 bitrate=2114.9kbits/s speed=0.0164x elapsed=0:04:02.54    \nframe=  121 fps=0.5 q=32.3 size=    1024KiB time=00:00:03.96 bitrate=2114.9kbits/s speed=0.0163x elapsed=0:04:03.09    \nframe=  121 fps=0.5 q=32.3 size=    1024KiB time=00:00:03.96 bitrate=2114.9kbits/s speed=0.0163x elapsed=0:04:03.61    \nframe=  121 fps=0.5 q=32.3 size=    1024KiB time=00:00:03.96 bitrate=2114.9kbits/s speed=0.0162x elapsed=0:04:04.16    \nframe=  121 fps=0.5 q=32.3 size=    1024KiB time=00:00:03.96 bitrate=2114.9kbits/s speed=0.0162x elapsed=0:04:04.71    \nframe=  121 fps=0.5 q=32.3 size=    1024KiB time=00:00:03.96 bitrate=2114.9kbits/s speed=0.0162x elapsed=0:04:05.28    \nframe=  121 fps=0.5 q=32.3 size=    1024KiB time=00:00:03.96 bitrate=2114.9kbits/s speed=0.0161x elapsed=0:04:05.83    \nframe=  122 fps=0.5 q=34.0 size=    1024KiB time=00:00:04.00 bitrate=2097.2kbits/s speed=0.0162x elapsed=0:04:06.46    \nframe=  122 fps=0.5 q=34.0 size=    1024KiB time=00:00:04.00 bitrate=2097.2kbits/s speed=0.0162x elapsed=0:04:07.00    \nframe=  122 fps=0.5 q=34.0 size=    1024KiB time=00:00:04.00 bitrate=2097.2kbits/s speed=0.0162x elapsed=0:04:07.55    \nframe=  123 fps=0.5 q=34.2 size=    1024KiB time=00:00:04.03 bitrate=2079.9kbits/s speed=0.0163x elapsed=0:04:08.09    \nframe=  123 fps=0.5 q=34.2 size=    1024KiB time=00:00:04.03 bitrate=2079.9kbits/s speed=0.0162x elapsed=0:04:08.66    \nframe=  123 fps=0.5 q=34.2 size=    1024KiB time=00:00:04.03 bitrate=2079.9kbits/s speed=0.0162x elapsed=0:04:09.20    \nframe=  123 fps=0.5 q=34.2 size=    1024KiB time=00:00:04.03 bitrate=2079.9kbits/s speed=0.0162x elapsed=0:04:09.72    \nframe=  124 fps=0.5 q=29.4 size=    1024KiB time=00:00:04.06 bitrate=2062.9kbits/s speed=0.0162x elapsed=0:04:10.25    \nframe=  125 fps=0.5 q=32.8 size=    1024KiB time=00:00:04.10 bitrate=2046.1kbits/s speed=0.0163x elapsed=0:04:10.79    \nframe=  125 fps=0.5 q=32.8 size=    1024KiB time=00:00:04.10 bitrate=2046.1kbits/s speed=0.0163x elapsed=0:04:11.36    \nframe=  125 fps=0.5 q=32.8 size=    1024KiB time=00:00:04.10 bitrate=2046.1kbits/s speed=0.0163x elapsed=0:04:11.90    \nframe=  125 fps=0.5 q=32.8 size=    1024KiB time=00:00:04.10 bitrate=2046.1kbits/s speed=0.0162x elapsed=0:04:12.42    \nframe=  125 fps=0.5 q=32.8 size=    1024KiB time=00:00:04.10 bitrate=2046.1kbits/s speed=0.0162x elapsed=0:04:12.94    \nframe=  126 fps=0.5 q=34.7 size=    1024KiB time=00:00:04.13 bitrate=2029.6kbits/s speed=0.0163x elapsed=0:04:13.46    \nframe=  126 fps=0.5 q=34.7 size=    1024KiB time=00:00:04.13 bitrate=2029.6kbits/s speed=0.0163x elapsed=0:04:13.98    \nframe=  127 fps=0.5 q=34.8 size=    1024KiB time=00:00:04.16 bitrate=2013.4kbits/s speed=0.0164x elapsed=0:04:14.50    \nframe=  127 fps=0.5 q=34.8 size=    1024KiB time=00:00:04.16 bitrate=2013.4kbits/s speed=0.0163x elapsed=0:04:15.05    \nframe=  128 fps=0.5 q=29.4 size=    1024KiB time=00:00:04.20 bitrate=1997.4kbits/s speed=0.0164x elapsed=0:04:15.59    \nframe=  128 fps=0.5 q=29.4 size=    1024KiB time=00:00:04.20 bitrate=1997.4kbits/s speed=0.0164x elapsed=0:04:16.11    \nframe=  128 fps=0.5 q=29.4 size=    1024KiB time=00:00:04.20 bitrate=1997.4kbits/s speed=0.0164x elapsed=0:04:16.63    \nframe=  128 fps=0.5 q=29.4 size=    1024KiB time=00:00:04.20 bitrate=1997.4kbits/s speed=0.0163x elapsed=0:04:17.14    \nframe=  129 fps=0.5 q=32.6 size=    1024KiB time=00:00:04.23 bitrate=1981.6kbits/s speed=0.0164x elapsed=0:04:17.68    \nframe=  129 fps=0.5 q=32.6 size=    1024KiB time=00:00:04.23 bitrate=1981.6kbits/s speed=0.0164x elapsed=0:04:18.18    \nframe=  129 fps=0.5 q=32.6 size=    1024KiB time=00:00:04.23 bitrate=1981.6kbits/s speed=0.0164x elapsed=0:04:18.72    \nframe=  129 fps=0.5 q=32.6 size=    1024KiB time=00:00:04.23 bitrate=1981.6kbits/s speed=0.0163x elapsed=0:04:19.25    \nframe=  130 fps=0.5 q=34.6 size=    1024KiB time=00:00:04.26 bitrate=1966.2kbits/s speed=0.0164x elapsed=0:04:19.78    \nframe=  130 fps=0.5 q=34.6 size=    1024KiB time=00:00:04.26 bitrate=1966.2kbits/s speed=0.0164x elapsed=0:04:20.32    \nframe=  131 fps=0.5 q=35.1 size=    1024KiB time=00:00:04.30 bitrate=1950.9kbits/s speed=0.0165x elapsed=0:04:20.83    \nframe=  131 fps=0.5 q=35.1 size=    1024KiB time=00:00:04.30 bitrate=1950.9kbits/s speed=0.0165x elapsed=0:04:21.36    \nframe=  131 fps=0.5 q=35.1 size=    1024KiB time=00:00:04.30 bitrate=1950.9kbits/s speed=0.0164x elapsed=0:04:21.91    \nframe=  132 fps=0.5 q=29.3 size=    1024KiB time=00:00:04.33 bitrate=1935.9kbits/s speed=0.0165x elapsed=0:04:22.45    \nframe=  132 fps=0.5 q=29.3 size=    1024KiB time=00:00:04.33 bitrate=1935.9kbits/s speed=0.0165x elapsed=0:04:23.00    \nframe=  132 fps=0.5 q=29.3 size=    1024KiB time=00:00:04.33 bitrate=1935.9kbits/s speed=0.0164x elapsed=0:04:23.53    \nframe=  132 fps=0.5 q=29.3 size=    1024KiB time=00:00:04.33 bitrate=1935.9kbits/s speed=0.0164x elapsed=0:04:24.05    \nframe=  133 fps=0.5 q=32.8 size=    1024KiB time=00:00:04.36 bitrate=1921.1kbits/s speed=0.0165x elapsed=0:04:24.57    \nframe=  133 fps=0.5 q=32.8 size=    1024KiB time=00:00:04.36 bitrate=1921.1kbits/s speed=0.0165x elapsed=0:04:25.10    \nframe=  133 fps=0.5 q=32.8 size=    1024KiB time=00:00:04.36 bitrate=1921.1kbits/s speed=0.0164x elapsed=0:04:25.61    \nframe=  134 fps=0.5 q=34.7 size=    1024KiB time=00:00:04.40 bitrate=1906.6kbits/s speed=0.0165x elapsed=0:04:26.13    \nframe=  134 fps=0.5 q=34.7 size=    1024KiB time=00:00:04.40 bitrate=1906.6kbits/s speed=0.0165x elapsed=0:04:26.64    \nframe=  135 fps=0.5 q=35.3 size=    1024KiB time=00:00:04.43 bitrate=1892.2kbits/s speed=0.0166x elapsed=0:04:27.16    \nframe=  135 fps=0.5 q=35.3 size=    1024KiB time=00:00:04.43 bitrate=1892.2kbits/s speed=0.0166x elapsed=0:04:27.68    \nframe=  136 fps=0.5 q=35.3 size=    1024KiB time=00:00:04.46 bitrate=1878.1kbits/s speed=0.0167x elapsed=0:04:28.20    \nframe=  136 fps=0.5 q=35.3 size=    1024KiB time=00:00:04.46 bitrate=1878.1kbits/s speed=0.0166x elapsed=0:04:28.74    \nframe=  136 fps=0.5 q=35.3 size=    1024KiB time=00:00:04.46 bitrate=1878.1kbits/s speed=0.0166x elapsed=0:04:29.29    \nframe=  136 fps=0.5 q=35.3 size=    1024KiB time=00:00:04.46 bitrate=1878.1kbits/s speed=0.0166x elapsed=0:04:29.82    \nframe=  137 fps=0.5 q=29.7 size=    1024KiB time=00:00:04.50 bitrate=1864.2kbits/s speed=0.0166x elapsed=0:04:30.34    \nframe=  137 fps=0.5 q=29.7 size=    1024KiB time=00:00:04.50 bitrate=1864.2kbits/s speed=0.0166x elapsed=0:04:30.86    \nframe=  137 fps=0.5 q=29.7 size=    1024KiB time=00:00:04.50 bitrate=1864.2kbits/s speed=0.0166x elapsed=0:04:31.38    \nframe=  137 fps=0.5 q=29.7 size=    1024KiB time=00:00:04.50 bitrate=1864.2kbits/s speed=0.0166x elapsed=0:04:31.90    \nframe=  137 fps=0.5 q=29.7 size=    1024KiB time=00:00:04.50 bitrate=1864.2kbits/s speed=0.0165x elapsed=0:04:32.41    \nframe=  138 fps=0.5 q=33.5 size=    1024KiB time=00:00:04.53 bitrate=1850.5kbits/s speed=0.0166x elapsed=0:04:32.93    \nframe=  138 fps=0.5 q=33.5 size=    1024KiB time=00:00:04.53 bitrate=1850.5kbits/s speed=0.0166x elapsed=0:04:33.43    \nframe=  139 fps=0.5 q=34.3 size=    1024KiB time=00:00:04.56 bitrate=1837.0kbits/s speed=0.0167x elapsed=0:04:33.96    \nframe=  140 fps=0.5 q=34.8 size=    1024KiB time=00:00:04.60 bitrate=1823.7kbits/s speed=0.0168x elapsed=0:04:34.49    \nframe=  140 fps=0.5 q=34.8 size=    1024KiB time=00:00:04.60 bitrate=1823.7kbits/s speed=0.0167x elapsed=0:04:35.04    \nframe=  141 fps=0.5 q=35.4 size=    1024KiB time=00:00:04.63 bitrate=1810.6kbits/s speed=0.0168x elapsed=0:04:35.59    \nframe=  141 fps=0.5 q=35.4 size=    1024KiB time=00:00:04.63 bitrate=1810.6kbits/s speed=0.0168x elapsed=0:04:36.17    \nframe=  141 fps=0.5 q=35.4 size=    1024KiB time=00:00:04.63 bitrate=1810.6kbits/s speed=0.0167x elapsed=0:04:36.77    \nframe=  141 fps=0.5 q=35.4 size=    1024KiB time=00:00:04.63 bitrate=1810.6kbits/s speed=0.0167x elapsed=0:04:37.33    \nframe=  141 fps=0.5 q=35.4 size=    1024KiB time=00:00:04.63 bitrate=1810.6kbits/s speed=0.0167x elapsed=0:04:37.98    \nframe=  141 fps=0.5 q=35.4 size=    1024KiB time=00:00:04.63 bitrate=1810.6kbits/s speed=0.0166x elapsed=0:04:38.52    \nframe=  141 fps=0.5 q=35.4 size=    1024KiB time=00:00:04.63 bitrate=1810.6kbits/s speed=0.0166x elapsed=0:04:39.03    \nframe=  141 fps=0.5 q=35.4 size=    1024KiB time=00:00:04.63 bitrate=1810.6kbits/s speed=0.0166x elapsed=0:04:39.55    \nframe=  141 fps=0.5 q=35.4 size=    1024KiB time=00:00:04.63 bitrate=1810.6kbits/s speed=0.0165x elapsed=0:04:40.08    \nframe=  141 fps=0.5 q=35.4 size=    1024KiB time=00:00:04.63 bitrate=1810.6kbits/s speed=0.0165x elapsed=0:04:40.63    \nframe=  142 fps=0.5 q=29.1 size=    1024KiB time=00:00:04.66 bitrate=1797.6kbits/s speed=0.0166x elapsed=0:04:41.18    \nframe=  142 fps=0.5 q=29.1 size=    1024KiB time=00:00:04.66 bitrate=1797.6kbits/s speed=0.0166x elapsed=0:04:41.68    \nframe=  142 fps=0.5 q=29.1 size=    1024KiB time=00:00:04.66 bitrate=1797.6kbits/s speed=0.0165x elapsed=0:04:42.20    \nframe=  142 fps=0.5 q=29.1 size=    1024KiB time=00:00:04.66 bitrate=1797.6kbits/s speed=0.0165x elapsed=0:04:42.76    \nframe=  142 fps=0.5 q=29.1 size=    1024KiB time=00:00:04.66 bitrate=1797.6kbits/s speed=0.0165x elapsed=0:04:43.30    \nframe=  142 fps=0.5 q=29.1 size=    1024KiB time=00:00:04.66 bitrate=1797.6kbits/s speed=0.0164x elapsed=0:04:43.85    \nframe=  142 fps=0.5 q=29.1 size=    1024KiB time=00:00:04.66 bitrate=1797.6kbits/s speed=0.0164x elapsed=0:04:44.40    \nframe=  142 fps=0.5 q=29.1 size=    1024KiB time=00:00:04.66 bitrate=1797.6kbits/s speed=0.0164x elapsed=0:04:44.92    \nframe=  142 fps=0.5 q=29.1 size=    1024KiB time=00:00:04.66 bitrate=1797.6kbits/s speed=0.0163x elapsed=0:04:45.46    \nframe=  142 fps=0.5 q=29.1 size=    1024KiB time=00:00:04.66 bitrate=1797.6kbits/s speed=0.0163x elapsed=0:04:46.02    \nframe=  142 fps=0.5 q=29.1 size=    1024KiB time=00:00:04.66 bitrate=1797.6kbits/s speed=0.0163x elapsed=0:04:46.61    \nframe=  143 fps=0.5 q=32.0 size=    1024KiB time=00:00:04.70 bitrate=1784.9kbits/s speed=0.0164x elapsed=0:04:47.20    \nframe=  143 fps=0.5 q=32.0 size=    1024KiB time=00:00:04.70 bitrate=1784.9kbits/s speed=0.0163x elapsed=0:04:47.74    \nframe=  143 fps=0.5 q=32.0 size=    1024KiB time=00:00:04.70 bitrate=1784.9kbits/s speed=0.0163x elapsed=0:04:48.32    \nframe=  143 fps=0.5 q=32.0 size=    1024KiB time=00:00:04.70 bitrate=1784.9kbits/s speed=0.0163x elapsed=0:04:48.90    \nframe=  143 fps=0.5 q=32.0 size=    1024KiB time=00:00:04.70 bitrate=1784.9kbits/s speed=0.0162x elapsed=0:04:49.46    \nframe=  143 fps=0.5 q=32.0 size=    1024KiB time=00:00:04.70 bitrate=1784.9kbits/s speed=0.0162x elapsed=0:04:50.08    \nframe=  143 fps=0.5 q=32.0 size=    1024KiB time=00:00:04.70 bitrate=1784.9kbits/s speed=0.0162x elapsed=0:04:50.62    \nframe=  143 fps=0.5 q=32.0 size=    1024KiB time=00:00:04.70 bitrate=1784.9kbits/s speed=0.0161x elapsed=0:04:51.21    \nframe=  144 fps=0.5 q=34.9 size=    1024KiB time=00:00:04.70 bitrate=1784.9kbits/s speed=0.0161x elapsed=0:04:51.85    \nframe=  144 fps=0.5 q=34.9 size=    1024KiB time=00:00:04.73 bitrate=1772.3kbits/s speed=0.0162x elapsed=0:04:52.46    \nframe=  144 fps=0.5 q=34.9 size=    1024KiB time=00:00:04.73 bitrate=1772.3kbits/s speed=0.0162x elapsed=0:04:53.01    \nframe=  144 fps=0.5 q=34.9 size=    1024KiB time=00:00:04.73 bitrate=1772.3kbits/s speed=0.0161x elapsed=0:04:53.53    \nframe=  144 fps=0.5 q=34.9 size=    1024KiB time=00:00:04.73 bitrate=1772.3kbits/s speed=0.0161x elapsed=0:04:54.04    \nframe=  144 fps=0.5 q=34.9 size=    1024KiB time=00:00:04.73 bitrate=1772.3kbits/s speed=0.0161x elapsed=0:04:54.57    \nframe=  144 fps=0.5 q=34.9 size=    1024KiB time=00:00:04.73 bitrate=1772.3kbits/s speed=0.016x elapsed=0:04:55.17    \nframe=  144 fps=0.5 q=34.9 size=    1024KiB time=00:00:04.73 bitrate=1772.3kbits/s speed=0.016x elapsed=0:04:55.72    \nframe=  145 fps=0.5 q=34.5 size=    1024KiB time=00:00:04.76 bitrate=1759.9kbits/s speed=0.0161x elapsed=0:04:56.28    \nframe=  145 fps=0.5 q=34.5 size=    1024KiB time=00:00:04.76 bitrate=1759.9kbits/s speed=0.0161x elapsed=0:04:56.79    \nframe=  145 fps=0.5 q=34.5 size=    1024KiB time=00:00:04.76 bitrate=1759.9kbits/s speed=0.016x elapsed=0:04:57.32    \nframe=  146 fps=0.5 q=28.8 size=    1024KiB time=00:00:04.80 bitrate=1747.7kbits/s speed=0.0161x elapsed=0:04:57.83    \nframe=  146 fps=0.5 q=28.8 size=    1024KiB time=00:00:04.80 bitrate=1747.7kbits/s speed=0.0161x elapsed=0:04:58.37    \nframe=  146 fps=0.5 q=28.8 size=    1024KiB time=00:00:04.80 bitrate=1747.7kbits/s speed=0.0161x elapsed=0:04:58.98    \nframe=  147 fps=0.5 q=32.0 size=    1024KiB time=00:00:04.83 bitrate=1735.6kbits/s speed=0.0161x elapsed=0:04:59.50    \nframe=  147 fps=0.5 q=32.0 size=    1024KiB time=00:00:04.83 bitrate=1735.6kbits/s speed=0.0161x elapsed=0:05:00.03    \nframe=  147 fps=0.5 q=32.0 size=    1024KiB time=00:00:04.83 bitrate=1735.6kbits/s speed=0.0161x elapsed=0:05:00.59    \nframe=  148 fps=0.5 q=34.4 size=    1024KiB time=00:00:04.86 bitrate=1723.8kbits/s speed=0.0162x elapsed=0:05:01.13    \nframe=  148 fps=0.5 q=34.4 size=    1024KiB time=00:00:04.86 bitrate=1723.8kbits/s speed=0.0161x elapsed=0:05:01.66    \nframe=  149 fps=0.5 q=33.7 size=    1024KiB time=00:00:04.90 bitrate=1712.0kbits/s speed=0.0162x elapsed=0:05:02.18    \nframe=  149 fps=0.5 q=33.7 size=    1024KiB time=00:00:04.90 bitrate=1712.0kbits/s speed=0.0162x elapsed=0:05:02.70    \n[mp4 @ 0000020942a6c580] Starting second pass: moving the moov atom to the beginning of the file\n[out#0/mp4 @ 0000020942a6ad00] video:1271KiB audio:0KiB subtitle:0KiB other streams:0KiB global headers:2KiB muxing overhead: 0.396555%\nframe=  150 fps=0.5 q=34.0 Lsize=    1276KiB time=00:00:04.93 bitrate=2118.4kbits/s speed=0.0163x elapsed=0:05:02.74    \nx265 [info]: frame I:      1, Avg QP:31.02  kb/s: 1933.68 \nx265 [info]: frame P:     32, Avg QP:26.81  kb/s: 4297.57 \nx265 [info]: frame B:    117, Avg QP:30.22  kb/s: 1475.98 \nx265 [info]: Weighted P-Frames: Y:9.4% UV:3.1%\n\nencoded 150 frames in 302.34s (0.50 fps), 2080.97 kb/s, Avg QP:29.50\n",
  "seconds": 303.17110109329224,
  "probe_out": {}
}